<?xml version="1.0" standalone="no"?>
<!DOCTYPE svg PUBLIC "-//W3C//DTD SVG 1.1//EN" "http://www.w3.org/Graphics/SVG/1.1/DTD/svg11.dtd" >
<svg xmlns="http://www.w3.org/2000/svg">
<defs>
  <font id="FourRoads" horiz-adv-x="1792">
    <font-face font-family="FourRoads"
      units-per-em="1792" ascent="1568"
      descent="224"
      font-weight="400"
      font-style="normal" />
    <missing-glyph horiz-adv-x="0" />
    <glyph glyph-name="search"
      unicode="&#xF002;"
      horiz-adv-x="1792" d="M1382.60292 278.0369C1486.47243 402.82737 1549.18795 562.8934 1549.18795 737.33131C1549.18795 1133.90657 1227.12385 1456.00002 830.59482 1456.00002C434.06076 1456.00002 112.00001 1133.90657 112.00001 737.33131C112.00001 340.75691 434.06076 18.66709 830.59482 18.66709C1005.01443 18.66709 1165.71715 81.38714 1289.83933 185.26496L1568.12845 -93.05521C1581.20013 -106.12342 1597.52629 -112.00119 1614.51104 -112.00119C1631.49926 -112.00119 1647.82875 -105.46941 1660.892 -93.05521C1686.37006 -67.57299 1686.37006 -26.41523 1660.892 -0.93293L1382.60292 277.38727zM830.59482 149.33083C506.57334 149.33083 242.653 413.2792 242.653 737.33131C242.653 1061.3865 506.57334 1325.33306 830.59482 1325.33306C1154.61127 1325.33306 1418.53331 1061.3865 1418.53331 737.33131C1418.53331 413.2792 1154.61127 149.33083 830.59482 149.33083z" />
    <glyph glyph-name="heart"
      unicode="&#xF004;"
      horiz-adv-x="1792" d="M1558.13568 1262.34035C1558.13568 1262.34035 1558.13568 1262.34092 1557.45291 1263.00041C1379.28877 1437.17593 1092.09739 1435.84633 915.26357 1259.67627L896.64932 1241.06225L875.37784 1262.33521C790.28162 1348.09334 676.60337 1394.62922 555.61011 1394.62922C434.6179 1394.62922 320.93854 1347.42882 235.84459 1261.67073C41.72571 1067.55185 101.5572 782.35383 239.16756 600.20297C240.49901 598.20692 242.49053 596.21314 244.48204 594.22047L767.98252 10.53128C805.87561 -28.69239 857.72748 -50.63032 911.57536 -50.63032C914.89828 -50.63032 918.89267 -50.63032 922.21564 -50.63032C980.05333 -47.30622 1033.23548 -19.38561 1069.13487 25.82098L1555.45569 600.2033C1690.40656 785.01595 1748.90998 1070.21079 1558.11863 1261.00648zM1449.10848 681.31128L964.11794 108.25973C952.15297 92.97014 934.86673 83.66321 914.92557 82.99786C895.64563 82.3378 877.02904 88.98032 863.7327 102.94246L342.89395 683.30757C240.5161 821.58274 192.65067 1030.9919 329.5976 1167.93983C390.09367 1228.4358 469.86975 1261.67583 555.62719 1261.67583C641.38573 1261.67583 721.16064 1228.4358 781.65674 1167.93983L850.12904 1099.46615C876.05721 1073.53967 917.93902 1073.53967 943.86609 1099.46615L1009.68003 1165.28089C1133.99629 1289.59736 1336.09485 1290.92636 1464.4009 1167.93925C1599.35181 1032.98761 1550.82176 820.25435 1449.10848 681.3107z" />
    <glyph glyph-name="star"
      unicode="&#xF005;"
      horiz-adv-x="1792" d="M1509.67457 999.08724L1209.6356 1042.59675L1075.63165 1312.74459C1041.63983 1380.93112 973.00636 1423.14171 896.52607 1423.14171C820.04321 1423.14171 751.40978 1380.93112 717.41788 1312.74459L583.41401 1042.59675L283.37634 999.08724C207.5496 988.04684 146.10439 936.74582 121.91769 864.01205C98.38588 791.28143 117.33755 714.00407 172.25057 660.75313L389.27196 450.34668L338.2843 153.57577C325.21121 78.24458 355.93383 4.2121 418.03386 -40.59597C453.33288 -65.92115 493.86056 -78.90757 535.04059 -78.90757C567.07296 -78.90757 598.45037 -71.11623 628.51939 -56.17961L896.52607 84.09011L1164.53397 -56.17961C1231.86277 -91.24962 1312.91569 -86.05178 1375.01696 -41.24367C1437.11456 3.56451 1467.18354 77.59355 1454.76529 152.92479L1403.77754 449.69906L1620.80028 660.10218C1675.707 713.353 1694.66624 791.28143 1671.13316 863.36439C1647.60137 935.44721 1585.50003 987.39956 1509.67457 998.4363zM1529.28484 753.61424L1287.42436 519.83235C1271.73694 504.89626 1265.19968 483.46702 1268.4689 462.68548L1325.33775 132.14324C1329.90531 105.51935 1319.45794 80.84183 1297.88307 65.25827C1276.31078 49.67123 1248.85485 47.72157 1225.32555 60.05979L926.59505 215.91666C907.63717 225.65745 884.75889 225.65745 865.8035 215.91666L567.07296 60.05979C543.53988 47.72104 516.08524 49.6704 494.51162 65.25827C472.94318 80.84183 462.48319 106.16701 467.06084 132.14324L523.92958 462.68548C527.85367 483.46702 520.66157 505.54733 504.97162 519.83235L263.11245 753.61424C244.15579 772.44614 237.6186 798.42237 245.46294 823.7508C253.31106 849.07597 274.87832 866.60926 301.02579 870.5052L635.05529 918.56159C656.62513 921.80936 674.92946 934.79628 684.07977 954.27911L833.77114 1254.94847C845.54338 1278.97629 869.07139 1293.26264 895.87248 1293.26264C922.67224 1293.26264 945.55051 1278.97629 957.96997 1254.94847L1107.66398 954.27911C1117.46777 935.44721 1135.76957 921.80987 1156.68835 918.56159L1490.71658 870.5052C1517.51641 866.60888 1537.78149 849.07597 1546.28074 823.7508C1554.77235 798.42237 1548.23645 772.44614 1528.62993 753.61424z" />
    <glyph glyph-name="user"
      unicode="&#xF007;"
      horiz-adv-x="1792" d="M896.00034 1455.99998C679.74454 1455.99998 504.00001 1280.25294 504.00001 1063.99969C504.00001 847.74641 679.74454 671.99943 896.00034 671.99943C1112.25278 671.99943 1288.00059 847.74641 1288.00059 1063.99969C1288.00059 1280.25294 1112.25278 1455.99998 896.00034 1455.99998zM896.00034 1325.33317C1040.38646 1325.33317 1157.33385 1208.38631 1157.33385 1063.99969C1157.33385 919.61304 1040.38646 802.66615 896.00034 802.66615C751.61414 802.66615 634.66679 919.61304 634.66679 1063.99969C634.66679 1208.38631 751.61414 1325.33317 896.00034 1325.33317zM830.6661 541.33264C542.54568 541.33264 307.99903 306.78549 307.99903 18.66558V-46.66779C307.99903 -82.60108 337.4001 -112.00119 373.33326 -112.00119C409.26642 -112.00119 438.66578 -82.60108 438.66578 -46.66779V18.66558C438.66578 234.91888 614.412 410.66592 830.6661 410.66592H961.33292C1177.58702 410.66592 1353.33317 234.91888 1353.33317 18.66558V-46.66779C1353.33317 -82.60108 1382.73426 -112.00119 1418.6674 -112.00119C1454.60054 -112.00119 1483.99998 -82.60108 1483.99998 -46.66779V18.66558C1483.99998 306.78549 1249.45334 541.33264 961.33292 541.33264z" />
    <glyph glyph-name="th_list"
      unicode="&#xF00B;"
      horiz-adv-x="1792" d="M308.00133 1455.99998C200.20006 1455.99998 112 1367.79968 112 1259.99984V998.63433C112 890.83597 200.20006 802.63426 308.00133 802.63426H569.36619C677.16746 802.63426 765.36565 890.83597 765.36565 998.63433V1259.99984C765.36565 1367.79968 677.16746 1455.99998 569.36619 1455.99998zM308.00133 1325.36511H569.36619C605.29812 1325.36511 634.73146 1295.93291 634.73146 1259.99984V998.63433C634.73146 962.69927 605.29812 933.36481 569.36619 933.36481H308.00133C272.06759 933.36481 242.73055 962.69927 242.73055 998.63433V1259.99984C242.73055 1295.93291 272.06759 1325.36511 308.00133 1325.36511zM1092.00132 1194.63463C1056.06572 1194.63463 1026.73235 1165.29865 1026.73235 1129.36491C1026.73235 1093.43186 1056.06572 1063.99961 1092.00132 1063.99961H1614.73274C1650.66842 1063.99961 1680.00171 1093.43186 1680.00171 1129.36491C1680.00171 1165.29865 1650.66842 1194.63463 1614.73274 1194.63463zM308.00133 541.36447C200.20006 541.36447 112 453.1644 112 345.36441V83.99909C112 -23.80093 200.20006 -112.00119 308.00133 -112.00119H569.36619C677.16746 -112.00119 765.36565 -23.80093 765.36565 83.99909V345.36441C765.36565 453.1644 677.16746 541.36447 569.36619 541.36447zM308.00133 410.63391H569.36619C605.29812 410.63391 634.73146 381.30092 634.73146 345.36441V83.99909C634.73146 48.06739 605.29812 18.63379 569.36619 18.63379H308.00133C272.06759 18.63379 242.73055 48.06739 242.73055 83.99909V345.36441C242.73055 381.30092 272.06759 410.63391 308.00133 410.63391zM1092.00132 279.99911C1056.06572 279.99911 1026.73235 250.56563 1026.73235 214.63385C1026.73235 178.69735 1056.06572 149.36436 1092.00132 149.36436H1614.73274C1650.66842 149.36436 1680.00171 178.69735 1680.00171 214.63385C1680.00171 250.56563 1650.66842 279.99911 1614.73274 279.99911z" />
    <glyph glyph-name="times"
      unicode="&#xF00D;"
      horiz-adv-x="1792" d="M1485.01365 1425.93316C1530.8493 1467.35927 1601.61325 1465.97483 1645.79445 1421.7973C1689.97195 1377.61723 1691.35904 1306.85212 1649.93028 1261.01649L1645.79445 1256.67896L1061.11604 672.00052L1645.79445 87.32206L1649.93028 82.98448C1691.35904 37.14887 1689.97195 -33.61496 1645.79445 -77.79628C1601.61325 -121.97381 1530.8493 -123.36075 1485.01365 -81.93206L1480.67611 -77.79628L895.99766 506.88214L311.31914 -77.79628C265.71937 -123.39488 191.80439 -123.39488 146.20456 -77.79628C100.60474 -32.19647 100.60474 41.71971 146.20456 87.31828L730.8843 671.99673L146.20456 1256.67517L142.06879 1261.01276C100.6426 1306.8483 102.02707 1377.61352 146.20456 1421.79352C190.38463 1465.97351 261.14977 1467.35806 306.9854 1425.92934L311.32294 1421.79352L896.00144 837.11384L1480.67993 1421.79352z" />
    <glyph glyph-name="search-plus"
      unicode="&#xF00E;"
      horiz-adv-x="1792" d="M797.89941 1456.00002C419.67373 1456.00002 111.99874 1148.15044 111.99874 769.72646C111.99874 391.30192 419.67373 83.45276 797.89941 83.45276C963.82249 83.45276 1115.43915 142.29056 1234.3265 240.97905L1568.12678 -92.97063C1581.19303 -106.04121 1597.52739 -111.94261 1614.51066 -111.94261C1631.4954 -111.94261 1647.82825 -105.38773 1660.89601 -92.97063C1686.36802 -67.47817 1686.36802 -26.29262 1660.89601 -0.8002L1327.02051 333.1494H1326.44239C1424.42793 452.10265 1483.82034 604.36984 1483.82034 769.72646C1483.82034 1148.15044 1176.14966 1456.00002 797.91963 1456.00002zM797.89941 1325.28827C1104.27065 1325.28827 1353.1632 1076.25695 1353.1632 769.72646C1353.1632 463.19772 1104.27065 214.16451 797.89941 214.16451C491.53105 214.16451 242.7108 463.19772 242.7108 769.72646C242.7108 1076.25695 491.53105 1325.28827 797.89941 1325.28827zM797.89941 1129.2208C761.97001 1129.2208 732.61858 1099.81284 732.61858 1063.86493V835.08219H503.98452C468.05799 835.08219 438.62851 805.67436 438.62851 769.72646C438.62851 733.77841 468.05799 704.37059 503.98452 704.37059H732.61858V475.66241C732.61858 439.71453 761.97001 410.30671 797.89941 410.30671C833.82885 410.30671 863.25546 439.71453 863.25546 475.66241V704.37059H1091.88804C1127.8174 704.37059 1157.24401 733.77841 1157.24401 769.72646C1157.24401 805.67436 1127.8174 835.08219 1091.88804 835.08219H863.25546V1063.86493C863.25546 1099.81284 833.82885 1129.2208 797.89941 1129.2208z" />
    <glyph glyph-name="search-minus"
      unicode="&#xF010;"
      horiz-adv-x="1792" d="M798.22487 1455.99998C419.82638 1455.99998 112 1148.13918 112 769.70135C112 391.26296 419.82638 83.40257 798.22487 83.40257C963.95886 83.56169 1115.35989 142.3762 1234.14459 240.9346L1568.10747 -93.02717C1581.17421 -106.09828 1597.50048 -111.99987 1614.49305 -111.99987C1631.48418 -111.99987 1647.80603 -105.4448 1660.87862 -93.02717C1686.36458 -67.53384 1686.36458 -26.34682 1660.87862 -0.85349L1326.91718 333.10835C1424.94686 452.06595 1484.44834 604.33873 1484.44834 769.70135C1484.44834 1148.13918 1176.62044 1455.99998 798.22487 1455.99998zM797.50188 1325.28344C1104.01008 1325.28344 1353.00854 1076.24301 1353.00854 769.70135C1353.00854 463.16144 1104.01008 214.11912 797.50188 214.11912C490.99379 214.11912 242.06898 463.16144 242.06898 769.70135C242.06898 1076.24301 490.99379 1325.28344 797.50188 1325.28344zM503.42742 835.05946C467.48222 835.05946 438.06899 805.65053 438.06899 769.70135C438.06899 733.752 467.48222 704.34308 503.42742 704.34308H1091.65012C1127.59676 704.34308 1157.00855 733.752 1157.00855 769.70135C1157.00855 805.65053 1127.59676 835.05946 1091.65012 835.05946z" />
    <glyph glyph-name="cog"
      unicode="&#xF013;"
      horiz-adv-x="1792" d="M885.73201 1438.20755C788.99447 1436.8606 704.0452 1378.47409 669.40224 1288.9062L661.53628 1268.79116C642.58093 1218.81347 587.02297 1191.54365 536.04043 1207.12082L515.15903 1212.9665C422.3437 1240.22692 323.6464 1208.44083 264.16478 1132.50385C204.68459 1056.56551 198.15869 953.98634 247.18139 871.55717L258.25312 853.39118C285.70619 807.30746 272.67336 747.60767 228.87942 717.10519L211.201 704.78082C132.76413 649.61477 96.19509 553.55877 118.41799 460.74885C140.64096 367.93488 217.74029 298.49007 313.17137 284.85917L334.12143 281.58614C387.06642 274.44748 426.2741 226.41074 423.00647 173.8388L421.65953 152.39985C415.77344 56.34376 468.68876 -31.90136 556.27394 -72.14354C588.30521 -87.07146 622.33396 -94.20748 655.66902 -94.20748C713.84411 -94.20748 771.31206 -72.12872 815.75919 -30.58945L831.49 -15.6938C870.70842 20.65297 932.14982 21.32644 972.0215 -14.34689L987.68223 -28.61627C1059.57973 -92.87406 1162.21148 -107.1595 1248.4888 -64.32328C1335.4235 -21.48695 1385.79712 67.43441 1377.95399 163.49174L1375.93361 184.92941C1371.35403 238.15052 1409.29962 286.1873 1462.24324 294.62577L1483.8197 297.83138C1579.24937 313.40866 1654.41597 384.13571 1674.67503 478.24674C1694.93818 572.35777 1656.37437 667.15716 1575.97637 721.02609L1576.64969 720.35265L1559.03997 731.97661C1514.59272 761.83392 1500.17798 820.90335 1526.32585 867.63494L1536.76445 886.49864C1583.82758 970.22487 1575.37694 1072.75691 1513.93425 1146.74896C1452.49153 1220.73959 1353.78066 1250.57134 1261.61866 1221.36458L1241.36356 1214.88585C1190.38106 1198.65947 1134.15235 1224.6511 1114.5451 1273.97953L1106.67907 1293.39953C1068.76852 1382.31817 981.84059 1439.47498 885.75499 1438.17652zM887.68508 1309.64885C903.37272 1308.30194 960.24804 1305.81002 984.43475 1246.09954L992.30082 1226.61086C1038.05453 1114.97495 1164.21165 1055.90552 1279.90586 1092.90019L1300.15956 1099.3789C1362.25421 1119.4993 1401.4848 1079.30027 1411.94498 1066.31725C1422.39715 1053.33289 1453.78587 1007.86741 1421.76412 951.40024L1411.25809 932.60658C1351.77918 827.46286 1384.51623 692.43489 1485.17866 625.58295L1502.78843 613.89158C1557.03856 577.54484 1549.83655 523.06975 1546.56893 506.84064L1547.24221 504.88761C1543.96918 488.66115 1527.59195 436.08392 1462.8816 425.05125L1441.30519 421.77822C1321.69141 402.3098 1236.12121 292.59862 1245.92549 172.52557L1247.87849 151.15657C1253.10459 86.24958 1205.39111 57.64626 1191.0113 50.50893C1175.97962 43.37023 1124.32641 23.26061 1075.95556 66.09952L1060.2949 80.36893C970.09261 160.85182 830.86218 159.59236 742.62106 77.16325L726.89029 62.19889C679.17541 17.41221 626.9349 36.89288 611.90319 44.03154C596.86887 51.17027 548.46835 78.45362 552.39203 143.35657L553.73894 164.79556C560.93149 284.86862 472.68629 392.57956 353.06984 409.45382L332.11843 412.72689C267.40942 421.80517 249.80104 474.38913 245.87877 490.61419C241.95927 506.84064 233.41977 561.34397 287.01524 598.98785L304.69501 611.31226C404.04693 680.76247 433.44364 815.74191 372.00222 919.58989L360.93049 937.75588C327.59547 993.57114 358.29053 1040.31754 368.09619 1053.29922C376.5953 1063.68401 403.41526 1093.53055 447.86246 1093.53055C457.66803 1093.53055 467.44677 1092.31831 478.55756 1089.00487L499.43896 1083.15922C615.78506 1048.76007 740.67744 1110.40887 784.46863 1223.34185L792.26739 1243.45687C815.79816 1303.81799 871.35211 1309.00237 887.69437 1309.65154zM895.55111 990.99986C715.14786 990.99986 568.75995 845.63963 568.75995 666.50389C568.75995 487.3695 715.14786 341.93918 895.55111 341.93918C1075.95166 341.93918 1222.41365 487.3695 1222.41365 666.50389C1222.41365 845.63963 1075.95166 990.99986 895.55111 990.99986zM895.55111 861.18719C1003.40083 861.18719 1091.62714 773.59526 1091.62714 666.50389C1091.62714 559.41386 1003.40083 471.75189 895.55111 471.75189C787.70285 471.75189 699.47647 559.41386 699.47647 666.50389C699.47647 773.59526 787.70285 861.18719 895.55111 861.18719z" />
    <glyph glyph-name="download"
      unicode="&#xF019;"
      horiz-adv-x="1792" d="M895.96213 1259.98735C860.0263 1259.98735 830.68727 1230.57117 830.68727 1194.63853V567.45269L745.70542 652.36175C720.22747 677.84253 679.09 677.84253 653.60918 652.36175C628.13123 626.88468 628.13123 585.74288 653.60918 560.26577L849.58143 364.29331C862.64295 351.88126 878.97493 345.32598 895.96213 345.32598C899.97663 345.35999 903.97681 345.72729 907.89104 346.4443C920.26442 348.71107 931.95238 354.50199 941.75073 364.30034L1137.72434 560.27282C1163.20089 585.74989 1163.20089 626.89165 1137.72434 652.36875C1112.24216 677.84954 1071.10896 677.84954 1045.62814 652.36875L961.31152 568.12656V1194.6454C961.31152 1230.57805 931.89504 1259.99426 895.96213 1259.99426zM504.0177 867.96839C287.76929 867.96839 111.99875 692.27521 111.99875 476.02358C111.99875 259.77569 287.76929 84.00461 504.0177 84.00461H1287.98109C1504.23387 84.00461 1680.00009 259.77569 1680.00009 476.02358C1680.00009 692.27521 1504.23387 867.96839 1287.98109 867.96839C1252.04961 867.96839 1222.63313 838.62937 1222.63313 802.6937C1222.63313 766.76165 1252.04961 737.34477 1287.98109 737.34477C1432.36517 737.34477 1549.3027 620.40748 1549.3027 476.02358C1549.3027 331.63955 1432.36517 214.7023 1287.98109 214.7023H504.0177C359.6351 214.7023 242.69614 331.63955 242.69614 476.02358C242.69614 620.40748 359.6351 737.34477 504.0177 737.34477C539.95349 737.34477 569.29256 766.76165 569.29256 802.6937C569.29256 838.62937 539.95349 867.96839 504.0177 867.96839z" />
    <glyph glyph-name="refresh"
      unicode="&#xF01E;"
      horiz-adv-x="1792" d="M111.99874 672.00002C111.99874 1105.30998 466.84597 1455.99998 905.29643 1455.99998C1108.31285 1455.99998 1293.72559 1380.60948 1434.16112 1256.49076V1390.66654C1434.16112 1426.7492 1463.75732 1455.99998 1500.2693 1455.99998C1536.7787 1455.99998 1566.37754 1426.7492 1566.37754 1390.66654V1064.00007C1566.37754 1027.91896 1536.7787 998.66559 1500.2693 998.66559H1169.72934C1133.21608 998.66559 1103.62117 1027.91896 1103.62117 1064.00007C1103.62117 1100.08105 1133.21608 1129.33352 1169.72934 1129.33352H1377.41397C1257.20833 1250.44168 1090.02545 1325.33348 905.29643 1325.33348C539.86868 1325.33348 244.21524 1033.14454 244.21524 672.00002C244.21524 310.85559 539.86868 18.66569 905.29643 18.66569C1208.10916 18.66569 1463.016 219.31506 1541.77951 493.80037C1551.73399 528.50757 1588.2657 548.67 1623.38144 538.84626C1658.50107 529.00216 1678.91037 492.90726 1668.95986 458.1999C1574.5154 129.01542 1268.84591 -111.99987 905.29643 -111.99987C466.84597 -111.99987 111.99874 238.6902 111.99874 672.00002z" />
    <glyph glyph-name="lock"
      unicode="&#xF023;"
      horiz-adv-x="1792" d="M896.00132 1456.00005C679.74881 1456.00005 504.00096 1280.25301 504.00096 1063.99969V926.78253C355.04167 896.72926 242.66742 764.77253 242.66742 606.66598V214.66563C242.66742 34.34567 389.01423 -112.00123 569.3352 -112.00123H1222.66907C1402.98841 -112.00123 1549.33524 34.34567 1549.33524 214.66563V606.66598C1549.33524 764.11932 1436.96259 896.07589 1288.00169 926.78253V1063.99969C1288.00169 1280.25301 1112.25546 1456.00005 896.00132 1456.00005zM896.00132 1325.33325C1040.38914 1325.33325 1157.33487 1208.38637 1157.33487 1063.99969V933.33291H634.66777V1063.99969C634.66777 1208.38637 751.61513 1325.33325 896.00132 1325.33325zM569.3352 802.66614H1222.66907C1330.46861 802.66614 1418.6685 714.46595 1418.6685 606.66598V214.66563C1418.6685 106.86573 1330.46861 18.6655 1222.66907 18.6655H569.3352C461.53574 18.6655 373.33423 106.86573 373.33423 214.66563V606.66598C373.33423 714.46595 461.53574 802.66614 569.3352 802.66614zM896.00132 606.66598C860.06818 606.66598 830.66875 577.26591 830.66875 541.33259V410.6658C830.66875 374.73251 860.06818 345.33244 896.00132 345.33244C931.93446 345.33244 961.33552 374.73251 961.33552 410.6658V541.33259C961.33552 577.26591 931.93446 606.66598 896.00132 606.66598z" />
    <glyph glyph-name="barcode"
      unicode="&#xF02A;"
      horiz-adv-x="1792" d="M280.94592 1342.37242C187.78555 1342.37242 111.99937 1265.50966 111.99937 1171.02603V172.9742C111.99937 78.48979 187.78555 1.62777 280.94592 1.62777H1511.05286C1604.2125 1.62777 1679.9994 78.48979 1679.9994 172.9742V1171.02603C1679.9994 1265.50966 1604.2125 1342.37242 1511.05286 1342.37242zM280.94592 1249.19244H1511.05286C1553.54378 1249.19244 1588.12861 1214.14426 1588.12861 1171.02603V172.9742C1588.12861 129.87821 1553.56819 94.80771 1511.05286 94.80771H280.94592C238.45429 94.80771 203.87025 129.85591 203.87025 172.9742V1171.02603C203.87025 1214.12192 238.43146 1249.19244 280.94592 1249.19244zM403.93468 1092.85963C378.55469 1092.85963 358.02167 1072.0315 358.02167 1046.29145C358.02167 1020.54914 378.55469 999.67963 403.93468 999.67963H1388.02023C1413.40109 999.67963 1433.93413 1020.54914 1433.93413 1046.29145C1433.93413 1072.0315 1413.40109 1092.85963 1388.02023 1092.85963zM453.1651 843.34671C427.78516 843.34671 407.20816 822.52072 407.20816 796.77851V297.7525C407.20816 272.01248 427.78516 251.14064 453.1651 251.14064C478.54508 251.14064 499.07899 272.01248 499.07899 297.7525V796.77851C499.07899 822.52072 478.54508 843.34671 453.1651 843.34671zM649.95604 843.34671C624.58702 843.34671 604.04305 822.50962 604.04305 796.77851V297.7525C604.04305 272.02144 624.58702 251.14064 649.95604 251.14064H699.1865C724.55809 251.14064 745.10039 272.02144 745.10039 297.7525V796.77851C745.10039 822.50962 724.55809 843.34671 699.1865 843.34671zM895.97747 843.34671C870.59745 843.34671 850.06441 822.52072 850.06441 796.77851V297.7525C850.06441 272.01248 870.59745 251.14064 895.97747 251.14064C921.35833 251.14064 941.93438 272.01248 941.93438 297.7525V796.77851C941.93438 822.52072 921.35833 843.34671 895.97747 843.34671zM1092.81229 843.34671C1067.44331 843.34671 1046.85539 822.50962 1046.85539 796.77851V297.7525C1046.85539 272.02144 1067.44331 251.14064 1092.81229 251.14064H1141.99887C1167.37039 251.14064 1187.95657 272.02144 1187.95657 297.7525V796.77851C1187.95657 822.50962 1167.37039 843.34671 1141.99887 843.34671zM1338.83373 843.34671C1313.45371 843.34671 1292.87679 822.52072 1292.87679 796.77851V297.7525C1292.87679 272.01248 1313.45371 251.14064 1338.83373 251.14064C1364.21371 251.14064 1384.7475 272.01248 1384.7475 297.7525V796.77851C1384.7475 822.52072 1364.21371 843.34671 1338.83373 843.34671z" />
    <glyph glyph-name="tag"
      unicode="&#xF02B;"
      horiz-adv-x="1792" d="M1078.47359 1456.00002C982.38685 1456.00002 892.06502 1418.51841 824.20062 1350.51375L165.59299 690.79977C94.12587 619.24228 94.12587 502.75108 165.59299 431.16759L654.23219 -58.06703C688.91129 -92.81578 735.05906 -111.95326 784.13384 -112.00119H784.22077C833.24612 -112.00119 879.33629 -92.88574 914.03644 -58.23726L1574.68468 601.56181C1642.62316 669.41699 1680.00005 759.73997 1680.00005 855.74954V1272.24985C1680.00005 1373.5819 1597.56515 1456.00002 1496.25003 1456.00002zM1078.47359 1333.49983H1496.25003C1530.04479 1333.49983 1557.50004 1306.01888 1557.50004 1272.24985V855.74954C1557.50004 792.47637 1532.86311 732.95307 1488.0833 688.2477L827.51931 28.44862C815.94658 16.92359 800.5777 10.49893 784.21779 10.49893H784.13199C767.76883 10.5216 752.47074 16.95701 740.91612 28.53374L252.36365 517.68343C228.54927 541.54744 228.54927 580.33924 252.36365 604.199L910.8876 1263.99811C955.62296 1308.82718 1015.15267 1333.49983 1078.47359 1333.49983zM1235.93714 1201.81227C1134.59735 1201.81227 1052.18713 1119.39417 1052.18713 1018.06211C1052.18713 916.73022 1134.59735 834.31196 1235.93714 834.31196C1337.2786 834.31196 1419.68712 916.73022 1419.68712 1018.06211C1419.68712 1119.39417 1337.2786 1201.81227 1235.93714 1201.81227zM1235.93714 1079.31227C1269.7319 1079.31227 1297.18715 1051.85735 1297.18715 1018.06211C1297.18715 984.27181 1269.7319 956.81211 1235.93714 956.81211C1202.14238 956.81211 1174.68718 984.27181 1174.68718 1018.06211C1174.68718 1051.85735 1202.16544 1079.31227 1235.93714 1079.31227z" />
    <glyph glyph-name="bookmark"
      unicode="&#xF02E;"
      horiz-adv-x="1792" d="M1256.58587 1456.00002H535.41613C354.46749 1456.00002 207.61093 1309.65789 207.61093 1129.3429V40.92246C207.61093 -21.79744 245.63607 -77.32754 303.98551 -100.84758C322.34257 -108.03284 342.01071 -111.95432 361.02399 -111.95432C402.32739 -111.95432 442.31975 -95.6203 471.82115 -64.26424L896.00242 380.64226L1320.18081 -64.26424C1363.45002 -109.99619 1429.01224 -124.36833 1488.01792 -100.84829C1546.36736 -77.32829 1584.39251 -21.79819 1584.39251 40.9217V1129.34217C1584.39251 1309.65713 1437.53594 1455.99926 1256.58587 1455.99926zM1453.26955 40.92246C1453.26955 27.85425 1444.7415 22.63042 1439.49453 20.66858C1433.59714 18.05662 1423.76092 16.74849 1415.23718 25.89668L991.05882 470.80304C966.14236 496.93514 932.05167 511.30714 895.9952 511.30714C859.93586 511.30714 825.8452 496.28121 800.92874 470.80304L376.75179 25.89668C368.22373 16.74849 359.04952 18.05662 352.49445 20.66858C347.24748 22.63 338.71942 27.85376 338.71942 40.92246V1129.3429C338.71942 1237.13977 427.22794 1325.3371 535.40309 1325.3371H1256.57284C1364.74946 1325.3371 1453.25658 1237.13977 1453.25658 1129.3429z" />
    <glyph glyph-name="list"
      unicode="&#xF03A;"
      horiz-adv-x="1792" d="M177.36247 1321.6004C141.42877 1321.6004 111.99874 1292.40336 111.99874 1256.67536C111.99874 1220.94741 141.42877 1191.66284 177.36247 1191.66284H373.36224C409.29594 1191.66284 438.72425 1220.94741 438.72425 1256.67536C438.72425 1292.40336 409.29594 1321.6004 373.36224 1321.6004zM830.7254 1321.6004C794.79003 1321.6004 765.36172 1292.40336 765.36172 1256.67536C765.36172 1220.94741 794.79003 1191.66284 830.7254 1191.66284H1614.72439C1650.6598 1191.66284 1680.00009 1220.94741 1680.00009 1256.67536C1680.00009 1292.40336 1650.6598 1321.6004 1614.72439 1321.6004zM177.36247 736.92518C141.42877 736.92518 111.99874 707.72815 111.99874 672.00017C111.99874 636.27221 141.42877 607.07518 177.36247 607.07518H373.36224C409.29594 607.07518 438.72425 636.27221 438.72425 672.00017C438.72425 707.72815 409.29594 736.92518 373.36224 736.92518zM830.7254 736.92518C794.79003 736.92518 765.36172 707.72815 765.36172 672.00017C765.36172 636.27221 794.79003 607.07518 830.7254 607.07518H1614.72439C1650.6598 607.07518 1680.00009 636.27221 1680.00009 672.00017C1680.00009 707.72815 1650.6598 736.92518 1614.72439 736.92518zM177.36247 152.33749C141.42877 152.33749 111.99874 123.05295 111.99874 87.32497C111.99874 51.59698 141.42877 22.39979 177.36247 22.39979H373.36224C409.29594 22.39979 438.72425 51.59698 438.72425 87.32497C438.72425 123.05295 409.29594 152.33749 373.36224 152.33749zM830.7254 152.33749C794.79003 152.33749 765.36172 123.05295 765.36172 87.32497C765.36172 51.59698 794.79003 22.39979 830.7254 22.39979H1614.72439C1650.6598 22.39979 1680.00009 51.59698 1680.00009 87.32497C1680.00009 123.05295 1650.6598 152.33749 1614.72439 152.33749z" />
    <glyph glyph-name="edit"
      unicode="&#xF044;"
      horiz-adv-x="1792" d="M1317.39987 1456.00111C1238.34826 1456.00111 1163.90732 1424.66823 1107.72067 1368.48162L486.37283 741.89372C473.96706 729.48269 467.45342 713.14353 467.45342 696.16034V373.44071C467.45342 355.79905 474.64401 339.43834 487.05371 327.02683C499.47256 314.61187 515.80015 308.10735 532.78762 308.10735L859.45465 310.69383C876.44076 310.69383 892.77232 317.9213 905.18728 329.6813L1526.46668 950.96077C1642.10597 1066.59904 1642.10597 1254.10775 1526.46668 1369.09436C1470.28007 1425.281 1396.45546 1456.00141 1317.39987 1456.00141zM438.66608 1390.66771C258.34709 1390.66771 111.99905 1244.32081 111.99905 1064.00092V214.66703C111.99905 34.34703 258.34709 -111.99987 438.66608 -111.99987H1353.33434C1533.65333 -111.99987 1680.00009 34.34703 1680.00009 214.66703V672.00065C1680.00009 707.93221 1650.59903 737.33402 1614.66717 737.33402C1578.73274 737.33402 1549.33433 707.93221 1549.33433 672.00065V345.33369H1418.66721C1310.86515 345.33369 1222.66726 257.13532 1222.66726 149.33363V18.66698H438.66608C330.86662 18.66698 242.66609 106.86535 242.66609 214.66703V1064.00092C242.66609 1171.80079 330.86662 1260.00101 438.66608 1260.00101H634.66603C670.59789 1260.00101 700.00023 1289.40102 700.00023 1325.33446C700.00023 1361.26771 670.59789 1390.66771 634.66603 1390.66771zM1317.39987 1325.33446C1361.17546 1325.33446 1403.0284 1308.37496 1434.38774 1277.0149C1499.07005 1212.33497 1499.07005 1107.78776 1434.38774 1043.1078L832.02771 440.74774L598.1205 438.77362V668.73337L1200.48049 1276.33379C1231.84119 1307.69378 1272.97368 1325.33389 1317.39987 1325.33389zM1418.66721 214.66703H1549.33433C1549.33433 106.86535 1461.13248 18.66698 1353.33434 18.66698V149.33363C1353.33434 185.26522 1382.73143 214.66703 1418.66721 214.66703z" />
    <glyph glyph-name="chevron_right"
      unicode="&#xF054;"
      horiz-adv-x="1792" d="M617.4761 1436.87515C591.48138 1462.37408 549.49056 1462.37408 523.49584 1436.87515C497.50112 1411.37729 497.50112 1370.18656 523.49584 1344.68768L1115.37108 764.10403C1140.6972 739.25901 1154.69408 706.56855 1154.69408 671.91552C1154.69408 637.26542 1140.6972 603.92212 1115.37108 579.73095L523.49584 -0.85273C497.50112 -26.35063 497.50112 -67.54234 523.49584 -93.04021C536.82604 -106.1176 553.48885 -112.00047 570.82029 -112.00047C588.14984 -112.00047 604.81257 -105.46177 618.14273 -93.04021L1210.01608 487.54241C1260.67309 537.23246 1288.00025 602.61239 1288.00025 672.57134C1288.00025 742.52835 1260.00642 807.91123 1210.01608 857.60127L618.14273 1438.18193z" />
    <glyph glyph-name="check_circle"
      unicode="&#xF058;"
      horiz-adv-x="1792" d="M338.89976 1224.14932C34.72577 916.67486 36.37614 419.07072 343.84798 114.89677C651.32271 -189.27733 1148.92671 -187.62844 1453.10071 119.84886C1757.27476 427.32332 1755.62337 924.92743 1448.15256 1229.10072C1140.67872 1533.27461 643.07382 1531.62417 338.90073 1224.1496zM1277.82795 822.4358L851.35705 391.01306C815.04883 354.70287 755.46832 354.70287 719.15904 391.01306L702.65327 407.51791L653.14199 457.02983L514.34046 594.17987C478.0302 630.48991 478.0302 690.07041 514.34046 726.38059C550.65069 762.69063 610.2312 762.69063 646.53855 726.38059L785.34008 589.23048L1145.62983 952.8177C1181.93911 989.12787 1241.51962 989.12787 1277.82795 952.8177C1314.13723 918.15911 1314.13723 858.57861 1277.82795 822.26858z" />
    <glyph glyph-name="question_circle"
      unicode="&#xF059;"
      horiz-adv-x="1792" d="M896.00004 1456.00002C463.49383 1456.00002 111.99874 1104.50669 111.99874 671.99939C111.99874 239.4921 463.49383 -112.00119 896.00004 -112.00119C1328.50919 -112.00119 1679.99986 239.4921 1679.99986 671.99939C1679.99986 1104.50669 1328.50919 1456.00002 896.00004 1456.00002zM896.00004 1325.35827C1255.98901 1325.35827 1549.38411 1031.98609 1549.38411 671.99939C1549.38411 312.01417 1255.98901 18.64052 896.00004 18.64052C536.01401 18.64052 242.69155 312.01417 242.69155 671.99939C242.69155 1031.98609 536.01401 1325.35827 896.00004 1325.35827zM897.91131 1156.62201C823.67541 1156.91111 751.6767 1132.25335 692.8759 1085.21296C614.47534 1022.4939 569.99253 929.71837 569.99253 829.7561C569.99253 793.82248 599.44329 764.39766 635.37742 764.39766C671.31162 764.39766 700.68531 793.82248 700.68531 829.7561C700.68531 889.86326 727.45147 945.35802 774.49151 983.25455C822.18647 1021.14675 882.28065 1034.24965 943.69492 1020.52665C1013.60019 1004.19318 1071.1446 946.71962 1087.47904 876.81383C1108.38553 785.34642 1065.21535 693.83421 982.89448 653.32576C889.46924 607.5935 831.99 557.00601 831.99 460.31334V410.64082C831.99 374.70723 861.43928 345.35754 897.37499 345.35754C933.30466 345.35754 962.68281 374.70723 962.68281 410.64082V460.31334C962.68281 507.35371 992.69959 512.23641 1040.39296 535.75516C1177.59284 603.04903 1249.50856 754.64962 1214.87973 905.57085C1187.43945 1025.12893 1092.65559 1119.84424 973.09537 1147.28448L972.50274 1148.00719C947.67593 1153.73113 922.67428 1156.57865 897.93051 1156.67983zM896.00004 279.99911C861.95783 279.99911 833.86717 253.57356 830.99734 220.2432C833.8716 186.90992 861.95783 160.48728 896.00004 160.48728C930.04519 160.48728 958.20846 186.90992 961.07674 220.2432C958.20252 253.57356 930.04519 279.99911 896.00004 279.99911zM961.07674 220.2432C961.2249 218.39304 961.37268 216.52841 961.37268 214.63487V225.83705C961.37268 223.94354 961.22452 222.07891 961.07674 220.22872zM830.99734 220.2432C830.84918 222.09335 830.70102 223.95798 830.70102 225.85149V214.64935C830.70102 216.54289 830.84918 218.40748 830.99734 220.25767z" />
    <glyph glyph-name="information_circle"
      unicode="&#xF05A;"
      horiz-adv-x="1792" d="M895.99936 1456.00002C463.49202 1456.00002 111.99874 1104.50611 111.99874 671.99939C111.99874 239.49146 463.49202 -112.00123 895.99936 -112.00123C1328.50367 -112.00123 1679.99997 239.49146 1679.99997 671.99939C1679.99997 1104.50611 1328.50367 1456.00002 895.99936 1456.00002zM895.99936 1325.35823C1255.98353 1325.35823 1549.30723 1031.98535 1549.30723 671.99939C1549.30723 312.01326 1255.98353 18.64052 895.99936 18.64052C536.0136 18.64052 242.69144 312.01326 242.69144 671.99939C242.69144 1031.98535 536.0136 1325.35823 895.99936 1325.35823zM895.99936 1118.15366C861.9364 1118.15366 833.76581 1091.7566 830.92118 1058.39758C833.79544 1025.0627 861.95424 998.64136 895.99936 998.64136C930.04145 998.64136 958.20921 1025.0627 961.07753 1058.39758C958.23291 1091.7566 930.05929 1118.15366 895.99936 1118.15366zM961.07753 1058.39758C961.22569 1056.56477 961.37385 1054.74207 961.37385 1052.87022V1064.0001C961.37385 1062.11092 961.30317 1060.24774 961.07753 1058.39758zM830.92118 1058.39758C830.77302 1060.2463 830.62449 1062.11092 830.62449 1064.0001V1052.87022C830.62449 1054.74207 830.69857 1056.56477 830.92118 1058.39758zM895.99936 867.9996C860.0652 867.9996 830.69154 838.57523 830.69154 802.6413V291.12869C830.69154 255.19457 860.0652 225.84506 895.99936 225.84506C931.9305 225.84506 961.30718 255.19457 961.30718 291.12869V802.6413C961.30718 838.57523 931.9305 867.9996 895.99936 867.9996z" />
    <glyph glyph-name="arrow_right"
      unicode="&#xF061;"
      horiz-adv-x="1792" d="M177.81718 605.44132H1480.21803L1128.52395 256.3401C1102.59643 230.60307 1102.59643 189.02657 1128.52395 163.28954C1141.8198 150.09146 1158.44035 144.15284 1175.72609 144.15284C1193.01078 144.15284 1209.6325 150.75277 1222.93047 163.28954L1641.10788 578.38362C1692.96409 629.85785 1692.96409 713.66669 1641.10788 765.14102L1222.93047 1180.23434C1197.00177 1205.97137 1155.11776 1205.97137 1129.18915 1180.23434C1103.26049 1154.49737 1103.26049 1112.92208 1129.18915 1087.18493L1480.88319 738.08602H178.48235C141.9175 738.08602 112.00001 708.38696 112.00001 672.09312C112.00001 635.7965 141.9175 606.10023 178.48235 606.10023z" />
    <glyph glyph-name="plus"
      unicode="&#xF067;"
      horiz-adv-x="1792" d="M1536.70738 814.54589H1038.063V1313.45442C1038.063 1391.85471 973.95015 1456.00002 895.58867 1456.00002C817.2303 1456.00002 753.12063 1391.85471 753.12063 1313.45442V814.54589H254.46992C176.11156 814.54589 111.99874 750.40059 111.99874 672.00129C111.99874 593.60351 176.11156 529.4557 254.46992 529.4557H753.12063V30.54399C753.12063 -47.84964 817.2303 -111.99745 895.58867 -111.99745C973.95015 -111.99745 1038.063 -47.84964 1038.063 30.54399V529.4557H1536.70738C1615.0689 529.4557 1679.18488 593.60351 1679.18488 672.00129C1679.18488 750.40059 1615.0689 814.54589 1536.70738 814.54589z" />
    <glyph glyph-name="minus"
      unicode="&#xF068;"
      horiz-adv-x="1792" d="M254.5447 529.44019H1537.45165C1615.85368 529.44019 1680.00009 593.59234 1680.00009 672.00002C1680.00009 750.40865 1615.85368 814.56078 1537.45165 814.56078H254.5447C176.14425 814.56078 111.99875 750.40865 111.99875 672.00002C111.99875 593.59234 176.14425 529.44019 254.5447 529.44019z" />
    <glyph glyph-name="exclamation_circle"
      unicode="&#xF06A;"
      horiz-adv-x="1792" d="M896.00132 1456.00005C463.49512 1456.00005 112.00001 1104.50617 112.00001 671.99946C112.00001 239.49161 463.49512 -112.00126 896.00132 -112.00126C1328.5107 -112.00126 1680.00247 239.49161 1680.00247 671.99946C1680.00247 1104.50617 1328.5107 1456.00005 896.00132 1456.00005zM896.00132 1325.35816C1255.9906 1325.35816 1549.38664 1031.98541 1549.38664 671.99946C1549.38664 312.01352 1255.9906 18.64067 896.00132 18.64067C536.01571 18.64067 242.69249 312.01352 242.69249 671.99946C242.69249 1031.98541 536.01571 1325.35816 896.00132 1325.35816zM896.00132 1118.15372C860.07052 1118.15372 830.69324 1088.80493 830.69324 1052.87013V541.35758C830.69324 505.42362 860.07052 475.99928 896.00132 475.99928C931.9359 475.99928 961.38568 505.42362 961.38568 541.35758V1052.87013C961.38568 1088.80493 931.9359 1118.15372 896.00132 1118.15372zM896.00132 345.35735C861.95953 345.35735 833.86857 318.93501 830.99949 285.60128C833.84412 252.2437 861.94268 225.84506 896.00132 225.84506C930.06345 225.84506 958.23423 252.2437 961.07942 285.60128C958.20959 318.93501 930.04663 345.35735 896.00132 345.35735zM961.07942 285.60128C961.24232 283.75113 961.39048 281.88793 961.39048 279.99877V291.12861C961.39048 289.25676 961.2427 287.43412 961.07942 285.60128zM830.99949 285.60128C830.8366 287.43412 830.68844 289.25676 830.68844 291.12861V279.99877C830.68844 281.88793 830.83622 283.75113 830.99949 285.60128z" />
    <glyph glyph-name="chevron_down"
      unicode="&#xF078;"
      horiz-adv-x="1792" d="M1660.87579 950.52335C1686.37471 976.51807 1686.37471 1018.50888 1660.87579 1044.5036C1635.37792 1070.49832 1594.18719 1070.49832 1568.68831 1044.5036L988.10463 452.62839C963.25961 427.30226 930.56915 413.30539 895.91609 413.30539C861.26599 413.30539 827.92269 427.30226 803.73152 452.62839L223.14781 1044.5036C197.64991 1070.49832 156.4582 1070.49832 130.96033 1044.5036C117.88294 1031.1734 112.00007 1014.51059 112.00007 997.17916C112.00007 979.84961 118.53876 963.18688 130.96033 949.85671L711.54299 357.98339C761.23304 307.32638 826.61297 279.99923 896.57192 279.99923C966.52893 279.99923 1031.91181 307.99305 1081.60187 357.98339L1662.18256 949.85671z" />
    <glyph glyph-name="shopping_cart"
      unicode="&#xF07A;"
      horiz-adv-x="1792" d="M171.63582 1455.72725C141.40039 1452.98724 116.39549 1429.57798 112.39739 1398.16489C108.48086 1362.26392 133.94285 1330.31871 169.84417 1325.7496V1324.41985C270.36732 1312.67047 307.56778 1297.65887 358.48229 1246.7453C407.43834 1184.73489 556.25773 642.29504 569.31297 550.91147L545.84883 458.21075C530.8347 399.46226 543.88053 338.14612 581.73855 290.49395C618.94535 242.84481 675.10868 215.42014 735.8161 215.42014H1417.25938C1453.16134 215.42014 1482.50827 244.77018 1482.50827 280.66907C1482.50827 316.57095 1453.16134 345.97572 1417.25938 345.97572H735.8161C715.57937 345.97572 696.60773 355.10388 684.20642 370.76915C671.80224 386.43423 667.25168 407.30384 672.47435 426.88667L684.90004 476.53121H1188.80171C1352.64287 476.53121 1500.81071 580.30119 1556.94626 734.34808L1667.27411 1036.55039C1691.42571 1102.47746 1681.62203 1175.60706 1641.15149 1233.04825C1600.68091 1290.48941 1535.38005 1324.41985 1464.88128 1324.41985H633.9839C598.0821 1324.41985 568.67718 1295.07186 568.67718 1259.17098C568.67718 1223.27032 598.0821 1193.86427 633.9839 1193.86427H1464.88128C1492.95054 1193.86427 1517.7989 1180.82058 1534.11784 1157.97447C1550.43693 1135.1279 1553.65819 1107.04623 1544.52095 1080.93581L1434.25085 778.7335C1397.04416 675.59963 1298.46327 607.02895 1188.8019 607.02895H690.10158C655.50763 824.39296 490.33071 1300.24085 451.81895 1338.75257C369.57169 1420.99815 297.79634 1442.55628 184.87074 1455.61118C180.38274 1456.10324 175.9551 1456.11442 171.63605 1455.72305zM666.57942 83.53595C612.5033 83.53595 568.67718 39.70995 568.67718 -14.36628C568.67718 -68.4424 612.5033 -112.26844 666.57942 -112.26844C720.65263 -112.26844 764.48166 -68.4424 764.48166 -14.36628C764.48166 39.70995 720.65263 83.53595 666.57942 83.53595zM1384.60604 83.53595C1330.53282 83.53595 1286.7038 39.70995 1286.7038 -14.36628C1286.7038 -68.4424 1330.53282 -112.26844 1384.60604 -112.26844C1438.68231 -112.26844 1482.50827 -68.4424 1482.50827 -14.36628C1482.50827 39.70995 1438.68231 83.53595 1384.60604 83.53595z" />
    <glyph glyph-name="external_link"
      unicode="&#xF08E;"
      horiz-adv-x="1792" d="M1484.5697 1456.65006V1456.00002H1092.40603C1056.45724 1456.00002 1027.06544 1426.59235 1027.06544 1390.65924C1027.06544 1354.72603 1056.45724 1325.31836 1092.40603 1325.31836H1461.06104L782.61232 585.77097C758.42754 558.98327 759.76265 517.79742 786.55724 493.62212C798.97688 481.86333 814.64015 476.65359 830.98188 476.65359C848.62906 476.65359 866.27968 483.85015 879.35375 497.56961L1549.96612 1229.28093V868.63956C1549.96612 832.70549 1579.35803 803.29886 1615.30799 803.29886C1651.25678 803.29886 1680.64858 832.70549 1680.64858 868.63956V1260.62574C1680.64858 1368.42542 1592.41157 1456.64824 1484.5674 1456.64824zM438.82172 1325.32029C258.4266 1325.32029 111.99874 1178.99472 111.99874 998.6751V214.64405C111.99874 34.3248 258.4266 -112.00115 438.82172 -112.00115H1223.14662C1403.54173 -112.00115 1549.96846 34.3248 1549.96846 214.64405V476.00741C1549.96846 511.94149 1520.51502 541.34813 1484.5697 541.34813C1448.61974 541.34813 1419.22783 511.94149 1419.22783 476.00741V214.64405C1419.22783 106.84464 1330.99196 18.68047 1223.14662 18.68047H438.82172C330.97639 18.68047 242.73933 106.84464 242.73933 214.64405V998.6751C242.73933 1106.4746 330.97639 1194.63869 438.82172 1194.63869H700.2436C736.19012 1194.63869 765.64352 1224.04619 765.64352 1259.97958C765.64352 1295.91269 736.19012 1325.32029 700.2436 1325.32029z" />
    <glyph glyph-name="unlock"
      unicode="&#xF09C;"
      horiz-adv-x="1792" d="M1411.2 605.9724C1411.2 714.11555 1324.70302 801.78307 1218.00113 801.78307H574.00186C467.29997 801.78307 380.8017 714.11555 380.8017 605.9724V214.35114C380.8017 106.20798 467.29997 18.54048 574.00186 18.54048H1218.00113C1324.70302 18.54048 1411.2 106.20798 1411.2 214.35114zM831.60078 410.16173V540.70215C831.60078 576.74874 860.43529 605.9724 896.00083 605.9724C931.56774 605.9724 960.40088 576.74874 960.40088 540.70215V410.16173C960.40088 374.1152 931.56774 344.8916 896.00083 344.8916C860.43529 344.8916 831.60078 374.1152 831.60078 410.16173zM1153.60108 1128.13409C1153.60108 1236.33363 1067.15806 1323.94484 960.40088 1323.94484H831.60078C724.84364 1323.94484 638.40062 1236.33363 638.40062 1128.13409V932.32347H1218.00113C1395.83547 932.32347 1540.00014 786.2122 1540.00014 605.9724V214.35114C1540.00014 34.11137 1395.83547 -111.9999 1218.00113 -111.9999H574.00186C396.16623 -111.9999 252.00156 34.11137 252.00156 214.35114V605.9724C252.00156 763.86017 362.62289 895.58766 509.6018 925.82083V1128.13409C509.6018 1308.42886 653.71119 1454.48522 831.60078 1454.48522H960.40088C1138.29048 1454.48522 1282.40118 1308.42886 1282.40118 1128.13409C1282.40118 1092.08753 1253.56667 1062.86397 1218.00113 1062.86397C1182.4343 1062.86397 1153.60108 1092.08753 1153.60108 1128.13409z" />
    <glyph glyph-name="credit_card"
      unicode="&#xF09D;"
      horiz-adv-x="1792" d="M438.69529 1227.31815C258.38037 1227.31815 111.99937 1080.99503 111.99937 900.68026V443.31858C111.99937 263.00383 258.38037 116.68074 438.69529 116.68074H1353.3035C1533.61841 116.68074 1679.9994 263.00383 1679.9994 443.31858V900.68026C1679.9994 1080.99503 1533.61841 1227.31815 1353.3035 1227.31815zM438.69529 1096.65162H1353.3035C1461.10005 1096.65162 1549.3321 1008.47924 1549.3321 900.68026V835.31841H242.66669V900.68026C242.66669 1008.47924 330.89873 1096.65162 438.69529 1096.65162zM242.66669 704.65178H1549.3321V443.31858C1549.3321 335.51969 1461.10005 247.34721 1353.3035 247.34721H438.69529C330.89873 247.34721 242.66669 335.51969 242.66669 443.31858zM1222.63733 508.6804C1186.70294 508.6804 1157.33234 479.25066 1157.33234 443.31858C1157.33234 407.38661 1186.70294 378.0139 1222.63733 378.0139H1353.3035C1389.23902 378.0139 1418.66593 407.38661 1418.66593 443.31858C1418.66593 479.25066 1389.23902 508.6804 1353.3035 508.6804z" />
    <glyph glyph-name="tasks"
      unicode="&#xF0AE;"
      horiz-adv-x="1792" d="M1565.12047 518.49391C1588.60185 545.88873 1629.79231 549.056 1657.1903 525.57387C1684.58431 502.09212 1687.75159 460.90585 1664.27551 433.50761L1272.26865 -23.82644C1260.4292 -37.6422 1243.368 -45.90383 1225.18216 -46.60425C1207.00418 -47.30244 1189.36218 -40.39215 1176.50082 -27.52675L915.16115 233.80682L910.69666 238.78231C889.76888 264.4453 891.24256 302.27244 915.16115 326.19325C939.08098 350.11392 976.90801 351.58786 1002.57153 330.66035L1007.54966 326.19325L1218.99636 114.75334zM1288.02334 672.00135V1129.33535C1288.02334 1237.63969 1200.32583 1325.33574 1092.01927 1325.33574H438.67273C330.36608 1325.33574 242.66989 1237.63969 242.66989 1129.33535V214.66734C242.66989 106.36369 330.36608 18.66705 438.67273 18.66705H830.68228C866.76293 18.66705 896.01516 -10.5849 896.01516 -46.66635C896.01516 -82.74783 866.76293 -111.99983 830.68228 -111.99983H438.67273C258.20077 -111.99983 112 34.19717 112 214.66734V1129.33535C112 1309.80476 258.20077 1456.00251 438.67273 1456.00251H1092.01927C1272.49247 1456.00251 1418.69322 1309.80476 1418.69322 1129.33535V672.00135C1418.69322 635.91988 1389.441 606.66789 1353.35633 606.66789C1317.27436 606.66789 1288.02334 635.91988 1288.02334 672.00135zM830.68228 802.66829C866.76293 802.66829 896.01516 773.41629 896.01516 737.33482C896.01516 701.25335 866.76293 672.00135 830.68228 672.00135H504.00829C467.92231 672.00135 438.67273 701.25335 438.67273 737.33482C438.67273 773.41629 467.92231 802.66829 504.00829 802.66829zM896.01516 1129.33535C932.09721 1129.33535 961.34815 1100.08351 961.34815 1064.00202C961.34815 1027.92042 932.09721 998.66855 896.01516 998.66855H504.00829C467.92231 998.66855 438.67273 1027.92042 438.67273 1064.00202C438.67273 1100.08351 467.92231 1129.33535 504.00829 1129.33535z" />
    <glyph glyph-name="users"
      unicode="&#xF0C0;"
      horiz-adv-x="1792" d="M438.66638 1456.00002C294.28026 1456.00002 177.33286 1339.05312 177.33286 1194.66648C177.33286 1050.27982 294.28026 933.33294 438.66638 933.33294C583.0542 933.33294 699.99997 1050.27982 699.99997 1194.66648C699.99997 1339.05312 583.0542 1456.00002 438.66638 1456.00002zM1353.33381 1456.00002C1208.94765 1456.00002 1092.00026 1339.05312 1092.00026 1194.66648C1092.00026 1050.27982 1208.94765 933.33294 1353.33381 933.33294C1497.71997 933.33294 1614.6674 1050.27982 1614.6674 1194.66648C1614.6674 1339.05312 1497.71997 1456.00002 1353.33381 1456.00002zM438.66638 1325.33325C510.5327 1325.33325 569.33316 1266.53312 569.33316 1194.66648C569.33316 1122.79984 510.5327 1063.99971 438.66638 1063.99971C366.8001 1063.99971 307.99968 1122.79984 307.99968 1194.66648C307.99968 1266.53312 366.8001 1325.33325 438.66638 1325.33325zM1353.33381 1325.33325C1425.20013 1325.33325 1484.00055 1266.53312 1484.00055 1194.66648C1484.00055 1122.79984 1425.20013 1063.99971 1353.33381 1063.99971C1281.46745 1063.99971 1222.66703 1122.79984 1222.66703 1194.66648C1222.66703 1266.53312 1281.46745 1325.33325 1353.33381 1325.33325zM895.99928 998.66632C733.97244 998.66632 602.00026 866.69264 602.00026 704.66621C602.00026 542.63954 733.97244 410.66588 895.99928 410.66588C1058.02608 410.66588 1189.99993 542.63954 1189.99993 704.66621C1189.99993 866.69264 1058.02608 998.66632 895.99928 998.66632zM895.99928 410.66588C643.81366 410.66588 438.66638 205.51876 438.66638 -46.66782C438.66638 -82.60111 468.06578 -112.00123 503.99899 -112.00123C539.93213 -112.00123 569.33316 -82.60111 569.33316 -46.66782C569.33316 133.65214 715.67998 279.99904 895.99928 279.99904C1076.32021 279.99904 1222.66703 133.65214 1222.66703 -46.66782C1222.66703 -82.60111 1252.06647 -112.00123 1287.99965 -112.00123C1323.93279 -112.00123 1353.33381 -82.60111 1353.33381 -46.66782C1353.33381 205.51876 1148.18653 410.66588 895.99928 410.66588zM405.99932 932.05698C243.97254 932.05698 111.99869 800.08329 111.99869 638.05669C111.99869 602.12335 141.3997 572.72326 177.33286 572.72326C213.26602 572.72326 242.66542 602.12335 242.66542 638.05669C242.66542 728.21666 315.83883 801.39021 405.99932 801.39021C441.93246 801.39021 471.33352 830.79027 471.33352 866.72359C471.33352 902.65691 441.93246 932.05698 405.99932 932.05698zM1386.00091 932.05698C1350.06777 932.05698 1320.66667 902.65691 1320.66667 866.72359C1320.66667 830.79027 1350.06777 801.39021 1386.00091 801.39021C1476.15976 801.39021 1549.33316 728.21666 1549.33316 638.05669C1549.33316 602.12335 1578.73422 572.72326 1614.6674 572.72326C1650.60054 572.72326 1679.99993 602.12335 1679.99993 638.05669C1679.99993 800.08329 1548.02771 932.05698 1386.00091 932.05698zM895.99928 867.99956C986.15976 867.99956 1059.33316 794.82617 1059.33316 704.66621C1059.33316 614.50618 986.15976 541.33263 895.99928 541.33263C805.84043 541.33263 732.66703 614.50618 732.66703 704.66621C732.66703 794.82617 805.84043 867.99956 895.99928 867.99956z" />
    <glyph glyph-name="bars"
      unicode="&#xF0C9;"
      horiz-adv-x="1792" d="M206.11177 1380.61606C154.0542 1380.61606 111.99875 1339.35454 111.99875 1288.21096C111.99875 1237.06766 154.0542 1195.74701 206.11177 1195.74701H1585.94582C1638.00352 1195.74701 1680.00009 1237.06766 1680.00009 1288.21096C1680.00009 1339.35454 1638.00352 1380.61606 1585.94582 1380.61606zM206.11177 764.40543C154.0542 764.40543 111.99875 723.14423 111.99875 672.00033C111.99875 620.85632 154.0542 579.59523 206.11177 579.59523H1585.94582C1638.00352 579.59523 1680.00009 620.85632 1680.00009 672.00033C1680.00009 723.14423 1638.00352 764.40543 1585.94582 764.40543zM206.11177 148.25333C154.0542 148.25333 111.99875 106.93319 111.99875 55.78931C111.99875 4.64531 154.0542 -36.61591 206.11177 -36.61591H982.86847C1034.92603 -36.61591 1076.92259 4.64531 1076.92259 55.78931C1076.92259 106.93319 1034.92603 148.25333 982.86847 148.25333z" />
    <glyph glyph-name="truck"
      unicode="&#xF0D1;"
      horiz-adv-x="1792" d="M226.07932 1165.36709C163.32152 1165.41321 111.90549 1114.70717 111.90549 1052.32743V436.09114C111.90549 367.66245 167.85823 312.08776 236.66498 312.08776C254.20692 312.08776 268.53536 326.26498 268.53536 343.6935S254.24473 375.29924 236.66498 375.29924C202.97992 375.29924 175.41941 402.51949 175.41941 435.78869V1052.02498C175.41941 1079.54768 197.98954 1101.92878 225.70127 1101.92878H1272.92489C1309.02954 1101.92878 1341.35359 1080.56844 1355.34177 1047.48827L1438.13671 850.51949H1257.04641L1226.76388 1035.01232C1223.9171 1052.1762 1207.55848 1063.89603 1190.16776 1061.0984C1172.81485 1058.2743 1161.05722 1042.00641 1163.85485 1024.80473L1198.48506 813.84776C1200.99916 798.46076 1214.21232 787.30802 1229.93958 787.30802H1473.03156L1577.75392 684.85401C1602.44118 660.65823 1616.69401 627.01097 1616.69401 592.60759V411.5173C1616.69401 392.42532 1601.04236 376.81148 1581.72354 376.81148H1577.37586C1562.29131 453.93553 1493.06869 511.40051 1412.92017 511.40051C1320.67376 511.40051 1245.44 436.92287 1245.44 345.43257S1320.67376 179.46464 1412.92017 179.46464C1493.06869 179.46464 1562.2535 236.55156 1577.37586 314.05367H1581.72354C1636.16405 314.05367 1680.39696 357.90852 1680.39696 411.97097V593.06127C1680.39696 644.09924 1659.30127 694.3811 1622.55392 730.29671L1513.29485 837.66549L1513.251 837.70934L1414.19952 1072.48402C1390.34399 1129.19288 1334.80712 1165.86461 1273.18349 1165.86461zM464.25654 511.32489C372.01013 511.32489 296.77637 436.84726 296.77637 345.35696S372.01013 179.38903 464.25654 179.38903C544.40506 179.38903 613.58987 236.47595 628.71224 313.97806H1188.23966C1205.7816 313.97806 1220.11004 328.15527 1220.11004 345.5838S1205.81941 377.18954 1188.23966 377.18954H628.71224C613.62768 454.31359 544.40506 511.77857 464.25654 511.77857zM464.25654 448.18903C521.34346 448.18903 567.84473 402.06582 567.84473 345.35696S521.34346 242.52489 464.25654 242.52489C407.16962 242.52489 360.66835 288.6481 360.66835 345.35696S407.16962 448.18903 464.25654 448.18903zM1413.18481 448.18903C1470.27173 448.18903 1516.773 402.06582 1516.773 345.35696S1470.27173 242.52489 1413.18481 242.52489C1356.09789 242.52489 1309.59662 288.6481 1309.59662 345.35696S1356.09789 448.18903 1413.18481 448.18903z" />
    <glyph glyph-name="envelope"
      unicode="&#xF0E0;"
      horiz-adv-x="1792" d="M438.61562 1259.99989C258.29708 1259.99989 112.00001 1113.63768 112.00001 933.31878V410.68134C112.00001 230.36371 258.29708 84.00012 438.61562 84.00012H1353.29677C1533.61441 84.00012 1679.97805 230.36371 1679.97805 410.68134V933.31878C1679.97805 1113.63768 1533.61441 1259.99989 1353.29677 1259.99989zM438.61562 1129.34063H1353.29677C1461.09559 1129.34063 1549.31865 1041.11756 1549.31865 933.31878V410.68134C1549.31865 302.88256 1461.09559 214.65947 1353.29677 214.65947H438.61562C330.81681 214.65947 242.6594 302.88256 242.6594 410.68134V933.31878C242.6594 1041.11756 330.81681 1129.34063 438.61562 1129.34063zM441.0437 999.07492C420.16162 999.68448 399.44479 990.28071 386.37817 971.90623C365.47158 942.50628 372.00621 901.98716 401.40629 881.08122L706.49683 662.87816C763.3379 622.37339 829.97025 602.10939 896.61243 602.10939C963.25129 602.10939 1029.88697 622.37339 1086.72804 662.87816L1391.88427 881.08122C1421.2842 901.98716 1427.81832 943.15813 1406.91239 971.90623C1386.00654 1001.30617 1344.83554 1007.8403 1316.08747 986.93435H1315.42711L1010.33653 768.66564C942.39072 719.66687 850.23555 720.32203 782.28966 768.66564L477.19912 986.93435C466.17367 994.77357 453.56891 998.71159 441.03966 999.07479z" />
    <glyph glyph-name="file"
      unicode="&#xF15B;"
      horiz-adv-x="1792" d="M535.44659 1455.99998C354.49778 1455.99998 207.60928 1309.67796 207.60928 1129.35803V214.64092C207.60928 34.32102 354.49778 -112.00119 535.44659 -112.00119H1256.62862C1437.57891 -112.00119 1584.39077 34.32102 1584.39077 214.64092V1063.99972C1584.39077 1081.63973 1577.22139 1097.97175 1565.41792 1110.38548L1237.5806 1437.02739C1225.12093 1449.44087 1208.74839 1455.99998 1191.04611 1455.99998zM535.44659 1325.35808H1059.95625V1194.64161C1059.95625 1050.25286 1177.32022 933.35783 1322.21114 933.35783H1453.30092V214.64092C1453.30092 106.83904 1364.80532 18.64071 1256.62862 18.64071H535.44659C427.2699 18.64071 338.77426 106.83904 338.77426 214.64092V1129.35803C338.77426 1237.15791 427.2699 1325.35808 535.44659 1325.35808zM1191.04611 1298.5426L1426.40996 1063.99972H1322.21114C1250.09378 1063.99972 1191.04611 1122.77477 1191.04611 1194.64161zM601.02907 737.35764C564.96826 737.35764 535.44659 707.9334 535.44659 671.99949C535.44659 636.06553 564.96826 606.64118 601.02907 606.64118H1191.04611C1227.10548 606.64118 1256.62862 636.06553 1256.62862 671.99949C1256.62862 707.9334 1227.10548 737.35764 1191.04611 737.35764zM601.02907 410.64097C564.96826 410.64097 535.44659 381.29147 535.44659 345.35738C535.44659 309.42349 564.96826 279.99923 601.02907 279.99923H994.37377C1030.43024 279.99923 1059.95625 309.42349 1059.95625 345.35738C1059.95625 381.29147 1030.43024 410.64097 994.37377 410.64097z" />
    <glyph glyph-name="thumbs_up"
      unicode="&#xF164;"
      horiz-adv-x="1792" d="M131.53595 84.08296C131.53595 -23.76287 219.77262 -111.99987 327.61763 -111.99987H458.33795C508.66777 -111.99987 554.41789 -92.391 589.05874 -61.0191C623.69981 -92.391 669.45284 -111.99987 719.77971 -111.99987H1277.30725C1438.74611 -111.99987 1577.96384 8.91663 1600.84181 168.39696L1657.05019 560.55971C1670.77762 654.67815 1642.67184 749.45337 1580.57912 820.69677C1518.48624 892.59103 1428.28785 933.11643 1333.51563 933.11643H1111.94543V1236.38858C1111.94543 1357.30567 1013.25009 1455.99998 892.33363 1455.99998C801.48135 1455.99998 718.47203 1398.48222 686.44639 1313.5135L543.95964 933.11643H327.61763C219.77262 933.11643 131.53595 844.87946 131.53595 737.0336V83.4291zM808.6705 1268.41455C821.74407 1303.05551 855.07735 1325.93204 892.33363 1325.93204C941.35282 1325.93204 981.22442 1286.06222 981.22442 1237.04183V868.40834C981.22442 832.45972 1010.63474 803.04639 1046.58341 803.04639H1333.51563C1390.3807 803.04639 1444.63064 778.20991 1481.88386 735.72599C1519.1401 692.58824 1536.13369 635.72605 1527.63689 579.51475L1471.42855 187.35201C1457.70123 91.27215 1374.04101 18.72106 1277.30725 18.72106H719.77971C683.83111 18.72106 654.42072 48.13437 654.42072 84.08296V856.64537zM262.25714 737.68743C262.25714 773.63608 291.66922 803.04639 327.61763 803.04639H523.69986V84.08296C523.69986 48.13437 494.28655 18.72106 458.33795 18.72106H327.61763C291.66922 18.72106 262.25714 48.13437 262.25714 84.08296z" />
    <glyph glyph-name="shopping_basket"
      unicode="&#xF291;"
      horiz-adv-x="1792" d="M1089.5453 1387.32464C1161.63178 1387.32464 1227.98294 1349.62378 1264.78537 1288.1952L1409.54703 1046.69259H1475.75192C1605.47517 1046.69259 1702.04002 927.02002 1675.62706 799.79991L1675.56092 799.47022L1553.1797 225.85066L1553.11356 225.58722C1519.17151 69.21321 1381.54912 -43.32714 1220.75875 -43.32714H571.39636C410.91282 -43.31958 272.28166 68.96538 239.04289 225.85247L116.66037 799.33911L114.47421 811.31408C95.25317 934.58417 190.42596 1046.68547 316.40906 1046.69523H379.22677L524.38478 1288.86334C561.62322 1349.36148 627.48308 1387.31844 699.22849 1387.32729zM316.4038 910.43837C275.15263 910.43123 244.47402 875.32796 248.33932 835.99189L249.65628 828.07496L249.7223 827.94309L372.10483 254.32354V254.19163C391.9436 160.44181 474.95295 92.93227 571.45188 92.92528H1220.81491C1317.0452 92.92528 1399.82143 160.21145 1420.29362 254.52306L1542.60749 827.94373C1551.29942 870.90183 1518.67696 910.44022 1475.80725 910.44022zM606.58951 703.99828C640.73304 712.55089 675.29932 693.61777 687.00312 661.15189L689.05759 654.43507L757.05621 381.92662C766.14325 345.43793 744.00512 308.49565 707.58457 299.36382C671.15087 290.23884 634.21933 312.42814 625.10991 348.92741L557.1113 621.43571C548.02429 657.92445 570.16238 694.86683 606.58426 703.99854zM1101.10034 654.43482C1110.21373 690.93395 1147.13998 713.12313 1183.57368 703.99828C1219.98897 694.8667 1242.13629 657.92416 1233.04531 621.43546L1165.0467 348.92711L1162.99222 342.21036C1151.28445 309.74498 1116.72612 290.81147 1082.57861 299.36398C1046.16199 308.4955 1024.01468 345.43804 1033.10962 381.92677zM699.22316 1251.07188C675.79051 1251.06319 653.26259 1238.57993 640.1891 1217.3411L640.12295 1217.40785L537.86095 1046.69261H1250.97278L1148.24723 1218.07293C1136.09166 1238.36589 1113.99567 1251.0719 1089.545 1251.0719z" />
    <glyph glyph-name="trash_alt"
      unicode="&#xF2ED;"
      horiz-adv-x="1792" d="M696.77671 1456.00002C587.19411 1456.00002 497.50497 1367.80055 497.50497 1259.99986V1194.64355H231.90311C195.37557 1194.64355 165.43294 1165.28952 165.43294 1129.35731C165.43294 1093.42374 195.37557 1063.99968 231.90311 1063.99968H1560.12246C1596.64997 1063.99968 1626.52253 1093.42374 1626.52253 1129.35731C1626.52253 1165.28952 1596.64997 1194.64355 1560.12246 1194.64355H1294.52058V1259.99986C1294.52058 1367.80055 1204.83008 1456.00002 1095.24887 1456.00002zM696.77671 1325.35612H1095.24887C1131.77638 1325.35612 1161.64898 1295.93344 1161.64898 1259.99986V1194.64355H630.37521V1259.99986C630.37521 1295.93344 660.24917 1325.35612 696.77671 1325.35612zM364.70339 998.64339C328.17715 998.64339 298.30325 969.29206 298.30325 933.35715V214.64413C298.30325 34.32443 447.07621 -111.99987 630.37521 -111.99987H1161.64898C1344.94798 -111.99987 1493.72232 34.32443 1493.72232 214.64413V933.35715C1493.72232 969.29206 1463.84565 998.64339 1427.32086 998.64339C1390.79059 998.64339 1360.92076 969.29206 1360.92076 933.35715V214.64413C1360.92076 106.84343 1271.23162 18.64392 1161.64898 18.64392H630.37521C520.79397 18.64392 431.10483 106.84343 431.10483 214.64413V933.35715C431.10483 969.29206 401.23092 998.64339 364.70339 998.64339zM696.77671 802.64324C660.24917 802.64324 630.37521 773.2919 630.37521 737.35699V280.0004C630.37521 244.06817 660.24917 214.64413 696.77671 214.64413C733.30025 214.64413 763.17682 244.06817 763.17682 280.0004V737.35699C763.17682 773.2919 733.30025 802.64324 696.77671 802.64324zM1095.24887 802.64324C1058.72129 802.64324 1028.8487 773.2919 1028.8487 737.35699V280.0004C1028.8487 244.06817 1058.72129 214.64413 1095.24887 214.64413C1131.77638 214.64413 1161.64898 244.06817 1161.64898 280.0004V737.35699C1161.64898 773.2919 1131.77638 802.64324 1095.24887 802.64324z" />
    <glyph glyph-name="arrow_180"
      unicode="&#xF40A;"
      horiz-adv-x="1792" d="M597.04212 1455.9222C579.78797 1455.9222 562.48144 1449.25163 549.2873 1435.96028L171.77687 1054.97615C92.61083 975.22618 92.61083 845.66105 171.77687 765.91104L549.2873 384.92696C562.82092 371.97501 579.74462 365.14166 597.33605 365.14166C614.92866 365.14166 631.85577 371.29379 645.38606 384.92696C671.77548 411.50921 671.77548 454.4415 645.38606 481.02677L286.83791 842.28451H1138.66401C1362.62827 842.28451 1544.61491 658.94974 1544.61491 433.33016C1544.61491 207.71047 1362.62827 24.31692 1138.66401 24.31692H597.33605C560.12041 24.31692 529.67782 -6.32243 529.67782 -43.81262C529.67782 -81.30285 560.12041 -112.00119 597.33605 -112.00119H1138.66401C1437.05741 -112.00119 1679.93262 132.73005 1679.93262 433.33016C1679.93262 733.92721 1437.05741 978.6026 1138.66401 978.6026H286.77865L644.73885 1339.86035C671.12483 1366.44359 671.12483 1409.37667 644.73885 1435.96028C631.54471 1449.25209 614.29627 1455.9222 597.04212 1455.9222z" />
    <glyph glyph-name="arrow_90"
      unicode="&#xF40B;"
      horiz-adv-x="1792" d="M596.14683 1179.12781C579.6513 1179.07123 563.76353 1173.3645 551.07392 1160.76474L149.3114 762.52716C99.56276 713.1436 99.56276 632.73175 149.3114 583.34817L551.07392 185.1106C575.94582 160.41891 616.16113 160.41891 641.0342 185.1106C665.90969 209.8024 665.90969 249.69917 641.0342 274.39101L303.63494 609.316H1137.8886C1366.2237 609.316 1552.44836 424.44381 1552.44836 197.78551V-23.80792C1552.44836 -58.6298 1581.17761 -87.12041 1616.25529 -87.12041C1651.33656 -87.12041 1680.00005 -58.6298 1680.00005 -23.80792V197.78551C1680.00005 494.72042 1437.02034 735.94093 1137.8886 735.94093H303.5117L641.0342 1071.48441C665.90969 1096.17614 665.90969 1136.073 641.0342 1160.76474C628.43915 1172.64433 612.756 1178.97202 596.39325 1179.12781z" />
    <glyph glyph-name="box_timer"
      unicode="&#xF40C;"
      horiz-adv-x="1792" d="M1037.57461 1332.77578C1032.71893 1332.77578 1027.87638 1331.7064 1023.35648 1329.56024L414.24632 1040.59785C412.80523 1039.90185 411.36409 1039.09284 409.97206 1038.14383C409.64437 1037.94729 409.31676 1037.67709 409.31676 1037.67709C407.97386 1036.72808 406.71286 1035.70946 405.42725 1034.46157C405.01781 1034.06036 404.69039 1033.71643 404.33005 1033.3193C403.29023 1032.22044 402.30755 1031.01267 401.40689 1029.76478C401.1616 1029.41268 400.8338 1029.0524 400.66992 1028.70685C399.62998 1027.16009 398.71288 1025.46758 397.91869 1023.67107C397.75503 1023.26986 397.6734 1022.86862 397.42716 1022.31674C396.85415 1020.919 396.42003 1019.47049 396.07617 1017.87378C395.99377 1017.37429 395.83088 1016.89856 395.74848 1016.35077C395.4208 1014.45272 395.17543 1012.75776 395.17543 1011.06115V706.61181C395.17543 688.14261 410.10014 673.0568 428.47625 673.0568C446.85397 673.0568 461.86229 688.09274 461.86229 706.61181V956.6874L1004.24325 691.59011V98.7284L785.2262 205.78288C777.22634 209.72553 768.10619 210.29299 759.7108 207.34847C751.26786 204.40237 744.55021 198.37583 740.62725 190.33825C736.70508 182.30313 736.18097 173.13006 739.06328 164.69601C741.99468 156.20991 747.99256 149.42838 755.98838 145.48543L1022.86359 15.07359C1024.10815 14.47556 1025.33638 13.91411 1026.63015 13.4654L1028.02211 12.57702H1028.99659L1032.04259 11.22267L1033.09893 11.94324C1037.27489 11.39452 1041.59334 11.62387 1045.6662 12.62287H1049.85856L1050.9968 14.48489C1051.40624 14.68143 1051.8156 14.83714 1052.18411 15.03357L1661.2099 312.67037C1672.63413 318.25968 1679.99782 330.06995 1679.99782 342.79804V1009.58211C1680.08021 1014.42464 1679.17906 1019.13715 1677.24659 1023.63038L1677.41024 1023.58702C1677.08255 1024.33217 1676.75494 1025.00523 1676.39491 1025.70287C1673.0213 1032.29361 1667.47137 1037.58831 1660.86502 1040.68207L1051.92377 1329.56069C1047.40383 1331.70686 1042.51872 1332.77624 1037.66388 1332.77624zM1037.62072 1262.15375L1569.50733 1009.83521L1436.34573 944.75628H1436.29962L918.16428 1205.4952zM841.45287 1169.14752L1360.73038 907.81609L1284.69177 870.62213L798.46124 1116.5512C782.02248 1124.83574 761.9465 1118.22077 753.65093 1101.6989C749.63057 1093.71126 749.0082 1084.63489 751.79224 1076.09896C754.5762 1067.61289 760.51762 1060.67178 768.46434 1056.67681L1209.16384 833.72427L1037.58058 749.90021L505.69309 1009.83521zM1613.34229 956.64646V363.78485L1070.95978 98.68747V691.59151L1251.0483 779.56235V553.64777C1251.0483 542.01594 1257.20587 531.04128 1267.08586 525.00122C1276.82169 519.01318 1289.56921 518.5661 1299.75212 523.85897L1460.4607 607.51379C1471.58529 613.30451 1478.48629 624.68202 1478.48629 637.26059V890.67911zM1411.71595 858.18178V657.78257L1317.73682 608.86761V812.27101zM428.46528 647.71183C253.97993 647.71183 111.99874 505.04178 111.99874 329.63739C111.99874 154.23307 253.9308 11.56286 428.46528 11.56286C603.00058 11.56286 744.97351 154.23307 744.97351 329.63739C744.97351 505.04178 603.00058 647.71183 428.46528 647.71183zM395.0792 578.40148V571.63141C395.0792 553.16222 409.99666 538.07642 428.42265 538.07642C446.85034 538.07642 461.80869 553.11236 461.80869 571.63141V578.40148C573.31481 563.42677 661.01599 475.29569 675.91784 363.23474H669.18711C650.811 363.23474 635.8011 348.19872 635.8011 329.67972C635.8011 311.16067 650.761 296.12462 669.18711 296.12462H675.91784C661.01599 184.06382 573.31481 95.93257 461.80869 80.95794V87.72794C461.80869 106.19501 446.85034 121.283 428.42265 121.283C409.99666 121.283 395.0792 106.24483 395.0792 87.72794V80.95794C283.57233 95.93257 195.8277 184.06382 180.92668 296.12462H187.69842C206.07529 296.12462 221.08354 311.16067 221.08354 329.67972C221.08354 348.19872 206.12529 363.23474 187.69842 363.23474H180.92668C195.8277 475.29569 283.57233 563.42677 395.07845 578.40148zM428.42265 519.16186C409.99666 519.16186 395.0792 504.12592 395.0792 485.60684V329.67972C395.0792 317.90059 401.32688 306.86165 411.4124 300.82151C416.57916 297.72555 422.41328 296.12477 428.42265 296.12477C433.99069 296.12477 439.50959 297.53389 444.37506 300.22949L522.19058 342.7974C530.04308 347.08886 535.7372 354.18383 538.26986 362.76955C540.80823 371.35528 539.78473 380.44875 535.5596 388.28492C526.77031 404.50752 506.46831 410.53333 490.32599 401.69846L461.80627 386.12692V485.60718C461.80627 504.07637 446.84792 519.1622 428.42027 519.1622z" />
    <glyph glyph-name="calendar_time"
      unicode="&#xF40D;"
      horiz-adv-x="1792" d="M438.61135 1437.9431C258.34769 1437.9431 111.99874 1294.94354 111.99874 1118.77674V480.51359C111.99874 304.3466 258.34769 161.34716 438.61135 161.34716H634.54932C670.47449 161.34716 699.81666 190.11696 699.81666 225.22212C699.81666 260.33083 670.47449 289.02757 634.54932 289.02757H438.61135C330.84416 289.02757 242.6721 375.19815 242.6721 480.51359V991.1658H1352.97063V927.29073C1352.97063 892.18562 1382.38553 863.4854 1418.30665 863.4854C1454.23038 863.4854 1483.57263 892.18562 1483.57263 927.29073V1118.77674C1483.57263 1294.94354 1337.29508 1437.9431 1157.0313 1437.9431zM438.61135 1310.26261H1157.0313C1264.79716 1310.26261 1352.97063 1224.09381 1352.97063 1118.77674H242.6721C242.6721 1224.09381 330.84416 1310.26261 438.61135 1310.26261zM1222.36732 799.67992C970.26144 799.67992 765.15268 599.21017 765.15268 352.83306C765.15268 106.45236 970.26144 -93.94416 1222.36732 -93.94416C1474.47583 -93.94416 1679.51188 106.45236 1679.51188 352.83306C1679.51188 599.21017 1474.47583 799.67992 1222.36732 799.67992zM1222.36732 671.99938C1402.63106 671.99938 1548.9086 528.99994 1548.9086 352.83306C1548.9086 176.66619 1402.63106 33.73626 1222.36732 33.73626C1042.10358 33.73626 895.75599 176.66619 895.75599 352.83306C895.75599 528.99994 1042.10358 671.99938 1222.36732 671.99938zM1222.36732 544.31904C1186.44627 544.31904 1157.0313 515.61867 1157.0313 480.51359V352.83306C1157.0313 344.53606 1158.98365 336.27847 1162.2421 328.61895C1165.51407 320.95891 1170.10552 313.91644 1176.64531 307.53611L1307.24863 179.85558C1320.30935 167.09102 1336.61102 161.34716 1353.58998 161.34716C1370.57163 161.34716 1386.93664 167.72942 1400.00005 179.85558C1425.47252 204.75054 1425.47252 244.99793 1400.00005 269.89296L1288.32264 378.99541H1287.64966V480.51359C1287.64966 515.61867 1258.30741 544.31904 1222.38368 544.31904z" />
    <glyph glyph-name="chat"
      unicode="&#xF40E;"
      horiz-adv-x="1792" d="M438.57435 1456.00002C258.32988 1456.00002 112.00001 1309.67625 112.00001 1129.35639V-46.64413C112.00001 -72.77635 127.69257 -96.98051 152.50898 -106.78049C160.34787 -110.04804 168.86693 -112.001 177.35769 -112.001C194.33658 -112.001 211.30465 -105.48479 223.71216 -93.06916L397.43907 80.72788C483.64522 166.96777 598.55083 214.64269 720.67304 214.64269H1353.49712C1533.74155 214.64269 1680.00133 361.03604 1680.00133 541.35583V1129.35612C1680.00133 1309.67595 1533.74155 1455.99975 1353.49712 1455.99975zM438.57435 1325.35646H1352.87078C1460.62443 1325.35646 1548.73108 1237.15637 1548.73108 1129.35639V541.35606C1548.73108 433.55613 1460.62443 345.3561 1352.87078 345.3561H720.04677C563.31089 345.3561 415.67997 283.94932 304.66008 172.88152L242.64401 110.79632V1129.35639C242.64401 1237.15637 330.81937 1325.35646 438.57435 1325.35646zM471.21753 933.35634C417.1171 933.35634 373.28799 889.4807 373.28799 835.35618C373.28799 781.23531 417.1171 737.35617 471.21753 737.35617C525.31791 737.35617 569.14834 781.23531 569.14834 835.35618C569.14834 889.4807 525.31791 933.35634 471.21753 933.35634zM863.07944 933.35634C808.97902 933.35634 765.07856 889.4807 765.07856 835.35618C765.07856 781.23531 808.97902 737.35617 863.07944 737.35617C917.18251 737.35617 961.00886 781.23531 961.00886 835.35618C961.00886 889.4807 917.18251 933.35634 863.07944 933.35634zM1254.86997 933.35634C1200.77087 933.35634 1156.94048 889.4807 1156.94048 835.35618C1156.94048 781.23531 1200.77087 737.35617 1254.86997 737.35617C1308.97304 737.35617 1352.87078 781.23531 1352.87078 835.35618C1352.87078 889.4807 1308.97304 933.35634 1254.86997 933.35634z" />
    <glyph glyph-name="delivery_location"
      unicode="&#xF40F;"
      horiz-adv-x="1792" d="M493.94908 1299.16626C489.2416 1299.16626 484.53246 1298.15403 480.15267 1296.11467L130.55403 1133.47907C129.15675 1132.81368 127.73454 1132.06019 126.38717 1131.1586C126.05461 1130.96735 125.80499 1130.72613 125.80499 1130.72613C124.50752 1129.82625 123.21838 1128.81238 122.06231 1127.67458C121.6465 1127.29207 121.31376 1126.93436 120.94781 1126.5568C119.93313 1125.51381 118.97664 1124.39018 118.11168 1123.20414L117.36313 1122.2161C116.35677 1120.69988 115.46683 1119.10631 114.74322 1117.44542C114.57673 1117.07102 114.41066 1116.68022 114.24421 1116.11298C113.74514 1114.78393 113.29604 1113.42242 112.91348 1111.85797C112.83022 1111.38388 112.66419 1110.91313 112.58092 1110.4399C112.24836 1108.63756 111.99874 1107.02406 111.99874 1105.41136V748.85085C111.99874 736.7587 119.15142 725.49327 130.22232 720.18329L479.82011 552.6909L481.10927 552.13361C481.35872 551.99222 481.77465 551.88413 481.94099 551.83416C482.77271 551.50149 483.52956 551.21034 484.34462 550.97501C484.84363 550.83362 485.30942 550.72552 485.93319 550.58409C486.34902 550.48427 486.76491 550.37618 487.18078 550.28464C487.43022 550.2383 487.76294 550.20152 487.92931 550.15156L488.76103 549.97691C489.17682 549.9283 489.50957 549.85211 489.8755 549.80225C491.22287 549.61097 492.61184 549.5028 493.95921 549.5028H807.71193C859.16986 549.5028 901.02069 508.30638 901.02069 457.61196C901.02069 406.91538 859.16986 365.7211 807.71193 365.7211H397.68458C307.90973 365.7211 234.83402 293.77092 234.83402 205.27744C234.83402 116.78619 307.86149 44.83389 397.68458 44.83389H1351.19138C1353.02117 44.83389 1354.85926 45.00889 1357.1215 45.39088L1358.15278 45.60707C1359.88282 45.99001 1361.62103 46.48951 1363.30942 47.15403C1363.64202 47.29539 1363.9748 47.43674 1364.42389 47.62802C1366.01242 48.34349 1367.4181 49.09762 1368.72389 49.94839L1369.30628 50.28968C1370.75346 51.23789 1372.15907 52.39227 1373.64782 53.81367L1374.39632 54.50374C1375.6938 55.83277 1376.79167 57.04789 1377.70655 58.32877L1620.28487 399.244C1712.07909 528.1883 1696.64588 702.64853 1583.62304 813.99932C1455.48393 940.23914 1247.06146 940.23914 1118.92489 813.99932L1118.87992 814.04342C1005.85768 702.64715 990.37949 528.23318 1082.17624 399.2889L1289.08078 108.57336H397.72268C343.61744 108.57336 299.59914 151.97586 299.59914 205.27801C299.59914 258.58219 343.61744 301.98255 397.72268 301.98255H807.75007C894.8285 301.98255 965.70099 371.77507 965.70099 457.61249C965.70099 543.44774 894.8285 613.19946 807.75007 613.19946H634.4125L857.77828 720.17619C868.84912 725.48583 875.95864 736.7516 875.95864 748.84376V1104.71562C875.95864 1105.18966 875.9662 1105.63549 875.87587 1105.91909C875.87587 1106.53456 875.83807 1107.14752 875.70995 1107.81043C875.54402 1109.28254 875.29412 1110.73306 874.96141 1112.10869C874.87864 1112.4912 874.79549 1112.88217 874.62881 1113.3122C874.13014 1114.92485 873.54756 1116.51258 872.78247 1118.12613L872.36665 1119.11502C872.20073 1119.49753 871.95083 1119.85524 871.70127 1120.23285C870.95262 1121.46542 870.2124 1122.65727 869.29752 1123.84327C869.0477 1124.17583 868.79889 1124.50029 868.54903 1124.83136C867.34302 1126.25523 866.02895 1127.59932 864.68151 1128.78532C864.34891 1129.06791 863.93301 1129.35917 863.56708 1129.64448C862.46096 1130.49864 861.3381 1131.29709 860.0822 1132.0082C859.58353 1132.34076 859.00931 1132.63195 858.61843 1132.82325C858.20261 1133.05592 857.76172 1133.27236 857.32931 1133.51357L507.77561 1296.10624C503.39249 1298.14556 498.68418 1299.15779 493.9792 1299.15779zM493.94908 1232.07477L769.96549 1103.73696L678.63283 1058.17833L401.15514 1188.92297zM325.59677 1153.72245L603.37551 1022.84896L494.16364 972.4336L292.28761 1069.1812C284.53607 1072.9264 275.70914 1073.43955 267.57413 1070.64251V1070.68752C259.39013 1067.89049 252.85289 1062.16084 249.04945 1054.52706C245.24854 1046.89117 244.75785 1038.21499 247.54408 1030.20055C250.33859 1022.18619 256.21216 1015.68162 263.96205 1011.93413L461.58306 917.29255V632.29209L176.66986 768.79514V1053.83732L185.99666 1049.32445C193.74821 1045.57924 202.5319 1045.0661 210.66685 1047.86313C218.8509 1050.66183 225.43139 1056.38757 229.23482 1064.0235C233.03569 1071.65697 233.48485 1080.33562 230.69861 1088.35015C228.43637 1094.80005 224.24454 1100.24399 218.66374 1104.0378zM811.2258 1052.93482V768.83822L526.31261 632.33427V916.98961L646.65606 972.5196V859.39667C646.65606 841.85158 661.16275 827.50566 679.01958 827.50566C696.87729 827.50566 711.34063 841.80317 711.34063 859.39667V1003.0782zM1351.09565 844.99843C1421.66128 844.99843 1487.94112 818.04528 1537.71391 769.01014C1628.49846 679.57034 1640.90015 539.40229 1567.15488 435.83058H1567.23765L1351.1356 132.17809L1134.99068 435.83058C1061.2936 539.40229 1073.64702 679.57034 1164.4315 769.01014C1214.20357 818.04528 1280.52502 844.99843 1351.09312 844.99843zM1351.14062 784.61177C1240.42752 784.61177 1150.29588 695.85207 1150.29588 586.73267C1150.29588 477.6111 1240.38179 388.8966 1351.14062 388.8966C1461.90119 388.8966 1551.94217 477.6111 1551.94217 586.73267C1551.94217 695.85207 1461.90119 784.61177 1351.14062 784.61177zM1351.14062 720.87274C1426.1859 720.87274 1487.25755 660.66506 1487.25755 586.73267C1487.25755 512.79812 1426.1859 452.63568 1351.14062 452.63568C1290.16717 452.63568 1238.39153 492.37881 1221.12604 546.93342C1220.46066 549.03183 1219.83688 551.15352 1219.27959 553.29434C1216.47677 563.99787 1214.97974 575.18038 1214.97974 586.73259C1214.97974 589.04308 1215.0319 591.37021 1215.14604 593.65242C1215.72842 605.06299 1217.79923 616.08398 1221.11777 626.575C1221.78315 628.67341 1222.49839 630.75435 1223.26359 632.80701C1242.38041 684.13019 1292.50099 720.87266 1351.12906 720.87266z" />
    <glyph glyph-name="grid"
      unicode="&#xF410;"
      horiz-adv-x="1792" d="M308.00122 1455.99998C200.20027 1455.99998 112 1367.79994 112 1260.00016V998.63774C112 890.83565 200.20027 802.63783 308.00122 802.63783H569.36283C677.16043 802.63783 765.36236 890.83565 765.36236 998.63774V1260.00016C765.36236 1367.79994 677.16043 1455.99998 569.36283 1455.99998zM1222.7252 1455.99998C1114.92755 1455.99998 1026.72562 1367.79994 1026.72562 1260.00016V998.63774C1026.72562 890.83565 1114.92755 802.63783 1222.7252 802.63783H1484.00032C1591.79808 802.63783 1680.00001 890.83565 1680.00001 998.63774V1260.00016C1680.00001 1367.79994 1591.79808 1455.99998 1484.00032 1455.99998zM308.00122 1325.36265H569.36283C605.29646 1325.36265 634.72477 1295.93329 634.72477 1260.00016V998.63774C634.72477 962.70368 605.29646 933.36273 569.36283 933.36273H308.00122C272.06755 933.36273 242.72559 962.70368 242.72559 998.63774V1260.00016C242.72559 1295.93329 272.06755 1325.36265 308.00122 1325.36265zM1222.7252 1325.36265H1484.00032C1519.929 1325.36265 1549.36241 1295.93329 1549.36241 1260.00016V998.63774C1549.36241 962.70368 1519.929 933.36273 1484.00032 933.36273H1222.7252C1186.79153 933.36273 1157.36322 962.70368 1157.36322 998.63774V1260.00016C1157.36322 1295.93329 1186.79153 1325.36265 1222.7252 1325.36265zM308.00122 541.36292C200.20027 541.36292 112 453.16512 112 345.36302V84.00064C112 -23.797 200.20027 -111.99926 308.00122 -111.99926H569.36283C677.16043 -111.99926 765.36236 -23.797 765.36236 84.00064V345.36302C765.36236 453.16512 677.16043 541.36292 569.36283 541.36292zM1222.7252 541.36292C1114.92755 541.36292 1026.72562 453.16512 1026.72562 345.36302V84.00064C1026.72562 -23.797 1114.92755 -111.99926 1222.7252 -111.99926H1484.00032C1591.79808 -111.99926 1680.00001 -23.797 1680.00001 84.00064V345.36302C1680.00001 453.16512 1591.79808 541.36292 1484.00032 541.36292zM308.00122 410.63799H569.36283C605.29646 410.63799 634.72477 381.29706 634.72477 345.36302V84.00064C634.72477 48.06664 605.29646 18.63822 569.36283 18.63822H308.00122C272.06755 18.63822 242.72559 48.06664 242.72559 84.00064V345.36302C242.72559 381.29706 272.06755 410.63799 308.00122 410.63799zM1222.7252 410.63799H1484.00032C1519.929 410.63799 1549.36241 381.29706 1549.36241 345.36302V84.00064C1549.36241 48.06664 1519.929 18.63822 1484.00032 18.63822H1222.7252C1186.79153 18.63822 1157.36322 48.06664 1157.36322 84.00064V345.36302C1157.36322 381.29706 1186.79153 410.63799 1222.7252 410.63799z" />
    <glyph glyph-name="palette_picking"
      unicode="&#xF411;"
      horiz-adv-x="1792" d="M617.63714 272.18789C665.30886 277.22067 712.56629 264.55763 751.55095 236.0762L757.16846 231.83225C784.09643 210.68621 804.49095 183.22696 816.95685 151.67962L1578.76918 269.54437L1583.00943 269.97694C1592.88587 270.50804 1602.53216 267.66856 1610.61714 261.76932L1613.94241 259.09901C1621.31124 252.528 1626.13781 243.67544 1627.64501 233.81533L1628.03861 229.59696C1628.53044 221.13951 1626.50389 212.83838 1622.19478 205.55463L1619.83363 201.99719C1613.9209 193.93512 1605.56637 188.29621 1596.0135 185.86053L1591.84219 185.0245L830.05344 67.15971C827.73168 33.28335 816.60373 0.97097 797.33966 -27.35217L793.27648 -33.09509C764.74003 -72.00944 723.61465 -98.31847 676.62276 -107.95985L667.13879 -109.66434C657.19538 -111.21837 647.13689 -112.00123 637.19344 -112.00123C596.26093 -112.00123 556.99984 -99.13307 523.69184 -74.7965L515.63442 -68.9258H516.12625C481.32682 -40.8029 457.733 -2.11487 448.7104 41.67096L446.97896 51.12469C439.06905 101.96273 451.49463 152.81635 481.93279 194.3252L487.80621 201.94957C517.99058 239.16461 560.32605 263.54271 608.06757 270.94352zM629.58457 187.41101L621.25166 186.4196C592.88147 182.02223 567.99683 166.9155 551.0664 143.85162L550.37773 142.86017C534.0002 119.99142 527.35651 92.11586 531.6931 64.28451L532.67692 59.02556C538.04857 32.91175 552.71231 10.11587 574.36409 -5.72681H574.38676C597.5536 -22.62859 625.84809 -29.53757 654.15339 -25.14228L659.41684 -24.19808C685.58719 -18.82998 708.4412 -4.19448 724.31409 17.4279C741.23964 40.4891 748.13709 68.79409 743.73557 97.04701C739.60352 123.54066 726.04564 147.07041 705.32547 163.83167L701.08526 167.08418C682.55416 180.61342 660.78824 187.74368 638.04247 187.74622C635.27798 187.74622 632.4741 187.63774 629.68008 187.41211zM1428.35675 1205.26913C1449.9958 1206.36184 1469.48414 1190.95396 1472.89403 1169.10796L1587.66577 430.25517V430.23249L1588.05941 426.01413C1588.5512 417.55668 1586.49514 409.25551 1582.18602 401.97433L1579.84457 398.44047C1573.09558 389.2208 1563.1197 383.18339 1551.83343 381.46586L1551.85611 381.44318L811.65126 266.88328H811.62858C809.50358 266.56845 807.2802 266.37188 805.09612 266.37188C797.06818 266.37188 789.37079 268.56022 782.62385 272.72651L779.78058 274.63162C771.69368 280.53085 766.05542 288.89468 763.61358 298.4451L762.72815 302.5858L647.95644 1041.4385V1041.46496C646.23471 1052.77701 648.97963 1064.05787 655.73841 1073.28295L658.41436 1076.58566C664.9961 1083.94447 673.85735 1088.77728 683.73084 1090.28396L1423.91207 1204.81781H1423.93096zM368.90342 1455.30625C394.218 1457.97456 419.32684 1451.20391 440.07849 1436.06875L444.14159 1432.94309C463.99201 1416.92057 476.96067 1394.40578 480.89882 1369.13147L640.33272 342.80843V342.78576L640.72632 338.56739C641.21815 330.10703 639.17184 321.8087 634.85293 314.52494L632.51144 310.99407C625.75266 301.76156 615.78469 295.77067 604.52388 293.99334H604.47211C603.37018 293.83611 602.25847 293.69854 601.1468 293.60991V293.40355H597.89036C578.0006 293.40355 561.12036 306.78969 556.40388 325.75502L555.61687 329.64294L396.20755 1356.0153C394.77125 1365.16221 386.12346 1371.47652 376.86285 1370.09385V1370.12031L213.33624 1344.83451C203.45875 1343.27561 193.57634 1345.17883 185.06832 1350.19672L181.50692 1352.53458C173.4298 1358.43484 167.76894 1366.77426 165.28874 1376.3464L164.40331 1380.51363C160.7632 1403.76623 176.8456 1425.65245 200.16888 1429.28099L363.77219 1454.64286zM739.24734 1012.31057L840.90189 357.95617L1496.40719 459.42915L1394.77826 1113.75759zM961.18986 882.80592C971.06044 883.33703 980.71263 880.51822 988.79466 874.62389L1078.70543 808.98151L1082.10942 806.23646C1097.14998 792.70979 1100.66611 770.30946 1090.42264 752.87166L1088.01233 749.20996C1082.10942 741.14791 1073.74797 735.51156 1064.1942 733.07328L1060.02281 732.20777C1050.11088 730.70591 1040.21374 732.63068 1031.70666 737.64673L1028.14525 739.9836L1021.69148 744.71244L1046.95872 582.22138V582.19832L1047.35232 577.95435C1047.84415 569.50182 1045.78809 561.21653 1041.47901 553.93798L1039.13748 550.38053C1033.22478 542.31063 1024.85453 536.67956 1015.2938 534.24384L1011.12241 533.37836C1008.99741 533.06356 1006.75426 532.86689 1004.56036 532.86689C984.67554 532.87142 967.79039 546.25826 963.07592 565.21835L962.28883 569.10627L937.04813 731.62075L932.32587 725.16679V725.14033C924.23885 714.20302 911.35093 707.65572 897.70343 707.65572C890.62982 707.65827 883.7874 709.41231 877.62088 712.71502V712.07572L872.45581 715.86234C853.39936 729.79481 849.18273 756.59037 863.14891 775.63379L928.88541 865.36533L931.58108 868.69361C938.17269 876.0426 947.02498 880.8098 956.87492 882.36594H956.8976zM1230.92114 924.55939C1240.76024 925.09049 1250.41738 922.27463 1258.50036 916.37735L1348.41014 850.73497L1351.71575 848.06762C1359.09434 841.49465 1363.93376 832.64401 1365.44092 822.78141L1365.83456 818.53745C1366.32635 810.08789 1364.27029 801.79963 1359.96117 794.52107L1357.61968 790.96362C1350.86086 781.73609 1340.8388 775.68045 1329.55737 773.96301L1329.53469 773.98833C1319.66411 772.4373 1309.80435 774.38176 1301.31795 779.40073L1297.75653 781.73761L1291.30276 786.46547L1316.54343 623.9744V623.94643L1317.03526 619.70446C1317.52709 611.2549 1315.47099 602.96395 1311.16191 595.68804L1308.80073 592.13059C1302.04195 582.91291 1292.09658 576.84756 1280.81321 575.12999H1280.79054C1278.6655 574.81519 1276.44211 574.61857 1274.25808 574.61857C1254.36831 574.61857 1237.49095 588.00721 1232.77455 606.96999L1231.98746 610.8579L1206.72022 773.349L1202.01758 766.91864L1201.99491 766.89218C1193.90796 755.96008 1181.04362 749.41013 1167.39813 749.40757C1158.29782 749.40757 1149.58616 752.2854 1142.20954 757.6673V757.61787C1123.15014 771.55044 1118.93351 798.34599 1132.90261 817.38685L1198.63615 907.12095L1201.33179 910.44923C1207.92336 917.80805 1216.8328 922.62 1226.70047 924.12157z" />
    <glyph glyph-name="expand_alt"
      unicode="&#xF424;"
      horiz-adv-x="1792" d="M242.66501 -112.00123H961.33087C997.26473 -112.00123 1026.66492 -82.60119 1026.66492 -46.6668C1026.66492 -10.73548 997.26473 18.66452 961.33087 18.66452H334.78483L1549.33078 1233.21286V606.66503C1549.33078 570.73364 1578.73089 541.33352 1614.666 541.33352C1650.59986 541.33352 1680.00009 570.73364 1680.00009 606.66503V1325.33329C1680.00009 1397.19994 1621.19974 1456.00002 1549.33078 1456.00002H830.66493C794.7299 1456.00002 765.33084 1426.5999 765.33084 1390.66646C765.33084 1354.73332 794.7299 1325.33329 830.66493 1325.33329H1457.21095L242.66501 110.78461V737.33378C242.66501 773.26517 213.26489 802.66511 177.33094 802.66511C141.39813 802.66511 111.99802 773.26517 111.99802 737.33378V18.66452C111.99802 -53.20127 170.79719 -112.00123 242.66501 -112.00123z" />
    <glyph glyph-name="box"
      unicode="&#xF466;"
      horiz-adv-x="1792" d="M883.13086 1453.72807C892.81359 1457.07144 903.41827 1456.50602 912.79539 1452.05638L1634.61729 1109.62067H1634.63997C1642.49855 1105.96588 1649.05343 1099.62166 1653.06059 1091.87697L1654.15862 1089.61526L1654.17752 1089.57425L1655.7263 1085.50974C1657.02101 1081.41245 1657.62744 1077.14718 1657.54546 1072.82618V282.31944C1657.54387 268.18049 1649.88352 254.99213 1637.77029 247.93417L1635.29549 246.59845L913.47355 -106.21318L913.49245 -106.23586C911.49296 -107.26835 909.40334 -108.03045 907.33012 -108.66965L907.16571 -108.7116L905.42849 -109.12134L904.85464 -110.62914L902.99455 -110.54675L895.48005 -110.30108V-110.2784C894.34925 -110.27489 893.21838 -110.19601 892.09571 -110.11399L892.01369 -110.17598L890.8747 -110.99546L889.53894 -110.5037L884.45827 -108.63537V-108.61647C883.45034 -108.28916 882.44246 -107.96091 881.47546 -107.57574L878.49659 -106.26073L160.5916 244.73004V244.64802L156.69917 246.55736C143.15514 253.18677 134.4492 267.19373 134.44592 282.27586V1073.49981C134.44756 1083.18907 137.91224 1092.48008 144.27043 1099.75358C145.74545 1101.47444 147.39256 1103.0724 149.1626 1104.49823L151.21944 1106.02243C153.30906 1107.48927 155.54619 1108.75942 157.86527 1109.80833L879.07048 1452.01209zM1418.50031 931.78448V631.37877C1418.50031 617.41193 1411.31365 604.69068 1399.55036 597.50158L1397.14114 596.12489L1206.70767 496.96889C1195.43361 491.13436 1181.44047 491.18353 1170.16138 497.05091L1167.96529 498.29649C1156.24372 505.45854 1148.95048 518.47565 1148.95048 532.25891V800.1026L935.4591 695.73896V-7.1941L1578.36878 307.08177V1009.92958zM213.48143 307.21455L856.38866 -7.06053V695.78813L213.48143 1010.08446zM1228.0038 838.83342V597.71136L1339.39706 655.70519V893.27163zM265.44088 1073.07369L895.89886 764.87576L1099.31096 864.30544L576.94384 1128.5477V1128.56962C568.71808 1132.70786 562.2747 1139.46431 558.58633 1147.85716L557.16863 1151.56112C553.88256 1161.65603 554.64474 1172.43598 559.41394 1181.90398L561.42982 1185.43584C572.21062 1202.39125 594.24346 1208.78222 612.52068 1199.51824L1188.77461 908.00199L1278.97417 952.0847L663.48535 1261.89351zM754.33393 1304.96458L1368.55261 995.8554L1526.42238 1073.0106L895.94229 1372.16912z" />
    <glyph glyph-name="luggage_cart"
      unicode="&#xF59D;"
      horiz-adv-x="1792" d="M173.61113 1385.84125C151.0794 1385.84125 145.59222 1383.32881 130.41417 1366.04205C117.10301 1350.88134 113.02776 1340.93631 113.02776 1323.60623C113.02776 1301.51077 116.71988 1297.20514 267.95777 1143.13504C353.17061 1056.32652 427.5286 977.73716 433.19635 968.49385C442.76328 952.89139 443.50701 935.04023 443.56714 719.20688C443.63706 470.19181 446.54435 433.36512 470.08174 383.5675C495.79908 329.15773 551.94933 281.90018 614.40799 262.09534C631.77375 256.5888 749.00291 254.91409 1135.39075 254.63954C1617.41666 254.29712 1634.55591 254.63837 1651.59969 265.03101C1687.05975 286.65324 1688.3161 341.5449 1653.91416 366.04126C1638.6036 376.94339 1627.20076 377.22368 1143.13647 378.73681C602.38751 380.42705 632.84615 378.55842 602.45803 411.96676C572.0927 445.34981 572.39163 442.48795 572.39163 699.04522C572.39163 851.74715 570.16201 947.78161 566.17846 966.82148C553.28766 1028.43467 536.88051 1049.09027 363.27779 1222.32678L199.42158 1385.84125zM1093.37434 1228.99038V1063.73103C1093.37434 972.83885 1094.77768 898.47169 1096.49124 898.47169C1098.20454 898.47169 1115.18619 911.07715 1134.22578 926.48262C1153.26512 941.88811 1171.78809 954.48838 1175.38783 954.48838C1178.98726 954.48838 1199.18933 940.74969 1220.28302 923.95595C1241.37683 907.162 1259.26632 893.29622 1260.03677 893.14392C1260.80727 892.99172 1261.43478 968.49719 1261.43478 1060.92994V1228.99038H1177.40711zM997.71257 1228.9866L895.69265 1228.97148C804.45145 1228.95259 791.77903 1227.79337 775.76861 1218.03116C736.3797 1194.0143 737.84631 1205.24294 735.85945 912.73267C734.87462 767.78083 735.72112 635.67494 737.73901 619.16667C742.15508 583.04231 766.29341 552.85225 796.56187 545.58749V545.5822C807.29668 543.0058 983.71902 541.31627 1188.61152 541.82324L1561.14139 542.74482L1579.98282 556.18075C1614.62971 580.89151 1614.36216 578.30776 1614.36216 887.64177C1614.36216 1198.84715 1614.78275 1195.01849 1578.09295 1217.69447C1561.48559 1227.95834 1550.31606 1228.98687 1455.44546 1228.98687H1351.06976V1042.1524C1351.06976 857.23337 1350.93936 855.11917 1338.35354 836.27979C1322.02265 811.83376 1293.48726 797.6554 1260.59592 797.64438C1240.03835 797.6372 1228.32979 801.82238 1205.02454 817.50574L1175.4966 837.37745L1150.1676 819.18846C1101.73345 784.40558 1047.1511 792.12949 1012.66037 838.65115C1001.40158 853.83717 1000.87978 861.81241 999.32802 1041.72267zM1443.50068 147.17424C1430.98938 147.17424 1418.48009 143.47098 1403.17735 136.06307C1334.89387 103.00755 1334.63195 3.49905 1402.73779 -31.10683C1446.65379 -53.42161 1499.28163 -36.33089 1524.43261 8.41917C1549.67279 53.32819 1530.54626 113.44547 1483.82453 136.06307C1468.52175 143.47098 1456.01254 147.17424 1443.50121 147.17424zM734.23886 145.86947C678.26126 145.01832 627.67073 86.52261 644.32949 30.92104C653.28682 1.02411 671.02925 -19.79145 697.99553 -32.03882C726.77218 -45.10854 742.9275 -45.10854 771.70415 -32.03882C798.67055 -19.79145 816.41282 1.02411 825.37019 30.92104C838.6036 75.09014 806.83796 128.01063 758.377 142.52984C750.34071 144.93766 742.23566 145.99105 734.23886 145.86947z" />
    <glyph glyph-name="phone_alt"
      unicode="&#xF879;"
      horiz-adv-x="1792" d="M1581.37909 461.50241L1370.33257 566.66536C1275.58987 614.3469 1162.55096 578.42231 1111.58747 485.66743C1044.94079 511.79598 933.20975 589.52618 868.5228 652.23187C805.79556 717.54983 728.69569 826.63288 701.90481 893.25867C745.68403 916.12289 779.00733 953.35233 795.99566 1000.38159C814.29039 1050.6788 811.02284 1106.20032 786.85026 1153.88323L683.61137 1360.94494C624.15169 1462.84266 460.80391 1466.76188 390.88967 1445.85981C290.91967 1416.46601 204.67172 1346.57453 153.70687 1253.16835C85.75368 1128.40888 113.1952 977.52087 149.12745 827.28854C217.08058 626.10334 337.30643 441.90598 504.57639 283.17792C665.96578 113.3492 849.57213 -6.83811 1056.69781 -76.72826C1135.76008 -95.6725 1217.43261 -112.00119 1295.84303 -112.00119C1359.87402 -112.00119 1421.29342 -100.8975 1477.48551 -70.1961C1570.92318 -19.24675 1640.83469 66.97195 1670.23862 166.91059C1690.49443 237.45649 1687.22688 400.75309 1581.37637 461.50241zM1544.13495 203.49135C1524.535 136.86557 1477.48827 78.73187 1414.1091 44.7634C1329.82091 -0.95814 1205.67428 22.55471 1091.98348 49.33614C910.99422 110.08547 745.02805 219.16834 596.05427 375.93278C441.85317 522.24875 332.73514 688.15752 273.27541 863.2142C245.17937 982.74922 221.00411 1106.8541 266.74301 1191.11563C301.37283 1253.82211 358.87283 1301.50503 425.51945 1321.10071C436.63129 1324.36694 451.65446 1325.67341 467.98818 1325.67341C508.49984 1325.67341 557.50361 1315.87612 566.65173 1299.54557L667.92958 1096.40454C675.76843 1080.07232 677.0749 1062.43591 671.20246 1045.45517C665.3166 1028.47092 652.90634 1015.40666 636.56993 1008.22236C615.66219 999.07834 599.97908 992.54581 599.32719 992.54581C574.49871 982.09396 558.81552 958.58082 558.81552 931.80012C559.48896 807.04065 727.39327 607.81543 773.78546 560.13388C820.17633 515.06463 1018.80982 347.84439 1144.26024 346.54007C1169.08875 346.54007 1191.9603 360.25647 1203.06807 383.11721C1203.06807 383.11721 1211.5669 400.75377 1223.32391 422.96231C1240.31221 454.31515 1278.20689 466.72738 1309.57047 451.05096L1517.35208 347.8479C1544.14031 332.16801 1553.28836 242.68134 1542.18063 204.79638z" />
  </font>
</defs>
</svg>
